<svg xmlns="http://www.w3.org/2000/svg" viewBox="0 0 800 800" enable-background="new 0 0 800 800"><style>.st26{fill:#fff}</style><g id="图层_11"><linearGradient id="SVGID_1_" gradientUnits="userSpaceOnUse" x1="401.773" y1="162.104" x2="401.773" y2="717.596"><stop offset="0" stop-color="#F4F2FB"/><stop offset="1" stop-color="#E1EEF5"/></linearGradient><path d="M485.03 203.46c-38.37 30.29-120.74 33.81-181.17-2.22s-172-31.38-202.22 34.87 37.19 131.33 12.78 178.98S8.66 530.13 64.45 611.49s126.6 60.62 169.22 52.45c84.17-16.13 189.79 115.67 308.62 16.13 68.47-57.35 170.44 42.09 210.17-81.36 32.78-101.86-85.67-139.5-49.97-208.03 37.96-72.88 30.67-159.24-10.46-201.06-38.31-38.96-140.75-38.46-207 13.84z" style="fill:url(#SVGID_1_)"/><linearGradient id="SVGID_2_" gradientUnits="userSpaceOnUse" x1="494.782" y1="599.604" x2="494.782" y2="428.659"><stop offset=".34" stop-color="#B0B9E1"/><stop offset=".866" stop-color="#EAF0F8"/></linearGradient><path d="M406.65 428.66h216.44l-22.53 49.03s59.19 57.87-14.13 121.91c-134.28-44.17-221.74-37.1-219.98-38.87 1.77-1.76 40.2-132.07 40.2-132.07z" style="fill:url(#SVGID_2_)"/><linearGradient id="SVGID_3_" gradientUnits="userSpaceOnUse" x1="116.855" y1="542.49" x2="116.855" y2="405.316"><stop offset=".227" stop-color="#B7ACE0"/><stop offset=".789" stop-color="#E8E7FA"/></linearGradient><path d="M117.64 405.56s-.22-.57-.52.04c-2.7 5.49-27.15 64.96-29.09 110.86 0 0-4.08 26.37 30.11 26.02 28.54-.29 27.78-24.6 27.68-32.79-.39-33.22-28.18-104.13-28.18-104.13z" style="fill:url(#SVGID_3_)"/><linearGradient id="SVGID_4_" gradientUnits="userSpaceOnUse" x1="116.857" y1="420.547" x2="116.857" y2="571.681"><stop offset="0" stop-color="#ECF1FB"/><stop offset=".818" stop-color="#AFB0E7"/></linearGradient><path d="M116.86 571.68c-.55 0-1-.45-1-1V421.55c0-.55.45-1 1-1s1 .45 1 1v149.13c0 .55-.45 1-1 1z" style="fill:url(#SVGID_4_)"/><linearGradient id="SVGID_5_" gradientUnits="userSpaceOnUse" x1="617.984" y1="450.968" x2="617.984" y2="362.644"><stop offset=".227" stop-color="#CCD4F4"/><stop offset=".789" stop-color="#ECF1FB"/></linearGradient><path d="M618.49 362.8s-.14-.37-.33.03c-1.74 3.53-17.48 41.83-18.73 71.38 0 0-2.63 16.98 19.39 16.76 18.38-.18 17.89-15.84 17.82-21.11-.25-21.4-18.15-67.06-18.15-67.06z" style="fill:url(#SVGID_5_)"/><linearGradient id="SVGID_6_" gradientUnits="userSpaceOnUse" x1="617.985" y1="372.451" x2="617.985" y2="469.764"><stop offset="0" stop-color="#ECF1FB"/><stop offset="1" stop-color="#A6A8E2"/></linearGradient><path d="M617.99 469.76c-.36 0-.64-.29-.64-.64V373.1c0-.36.29-.64.64-.64s.64.29.64.64v96.02c0 .36-.29.64-.64.64z" style="fill:url(#SVGID_6_)"/><linearGradient id="SVGID_7_" gradientUnits="userSpaceOnUse" x1="463.902" y1="88.362" x2="429.148" y2="148.558"><stop offset="0" stop-color="#FFDB80"/><stop offset="1" stop-color="#FFBB24"/></linearGradient><circle cx="446.52" cy="118.46" r="34.75" style="fill:url(#SVGID_7_)"/><linearGradient id="SVGID_8_" gradientUnits="userSpaceOnUse" x1="421.565" y1="118.828" x2="421.565" y2="176.282"><stop offset="0" stop-color="#F9FAFE"/><stop offset="1" stop-color="#E5EDF7"/></linearGradient><path d="M466.3 137.41h-34.57c-2.23-10.61-11.65-18.58-22.93-18.58s-20.69 7.97-22.93 18.58h-9.05c-10.73 0-19.44 8.7-19.44 19.44 0 10.73 8.7 19.44 19.44 19.44h89.47c10.73 0 19.44-8.7 19.44-19.44.01-10.74-8.69-19.44-19.43-19.44z" style="fill:url(#SVGID_8_)"/><g><linearGradient id="SVGID_9_" gradientUnits="userSpaceOnUse" x1="688.586" y1="540.208" x2="688.586" y2="512.38"><stop offset=".227" stop-color="#AFB0E7"/><stop offset="1" stop-color="#ECF1FB"/></linearGradient><circle cx="688.59" cy="526.29" r="13.91" style="fill:url(#SVGID_9_)"/><linearGradient id="SVGID_10_" gradientUnits="userSpaceOnUse" x1="688.635" y1="515.894" x2="688.635" y2="560.69"><stop offset="0" stop-color="#DDE1F6"/><stop offset=".818" stop-color="#A6A8E2"/></linearGradient><path d="M688.64 560.69c-.24 0-.43-.19-.43-.43v-43.94c0-.24.19-.43.43-.43s.43.19.43.43v43.94a.44.44 0 01-.43.43z" style="fill:url(#SVGID_10_)"/></g><g><linearGradient id="SVGID_11_" gradientUnits="userSpaceOnUse" x1="2622.045" y1="266.481" x2="2451.058" y2="562.64" gradientTransform="matrix(-1 0 0 1 2941.346 0)"><stop offset="0" stop-color="#C8CBF2"/><stop offset="1" stop-color="#AFB0E7"/></linearGradient><path d="M248.82 393.99c0-24.52-.03-49.03.01-73.54.02-14.37 4.24-18.36 17.97-20.53 41.87-6.61 82.03-18.72 117.91-42.29 10.38-6.82 18.3-7.59 29.06-.47 34.85 23.06 73.26 37.11 114.55 42.8 13.12 1.81 16.84 5.88 16.85 19.25.04 45.72-.4 91.44.18 137.15.34 26.77-8.17 49.99-24.02 70.73-31.46 41.17-74.88 63.76-122.21 80.03-2.5.86-5.83.67-8.36-.23-38.47-13.74-74.58-31.84-104.15-61.09-22.97-22.73-37.84-49.56-37.79-83.22.03-22.87.01-45.73 0-68.59z" style="fill:url(#SVGID_11_)"/><linearGradient id="SVGID_12_" gradientUnits="userSpaceOnUse" x1="2625.25" y1="279.944" x2="2462.749" y2="561.403" gradientTransform="matrix(-1 0 0 1 2941.346 0)"><stop offset=".116" stop-color="#DEE4FF"/><stop offset=".847" stop-color="#BACBEE"/></linearGradient><path d="M247.94 401.44c0-23.21-.03-46.42.01-69.63.02-13.61 4.06-17.38 17.23-19.43 40.15-6.26 78.67-17.72 113.07-40.04 9.95-6.46 17.55-7.18 27.86-.44 33.42 21.83 70.25 35.14 109.84 40.52 12.58 1.71 16.14 5.56 16.15 18.22.03 43.28-.38 86.57.18 129.84.33 25.34-7.83 47.33-23.03 66.96-30.17 38.98-71.81 60.36-117.19 75.77-2.4.81-5.59.64-8.01-.22-36.89-13.01-71.52-30.14-99.87-57.84-22.03-21.52-36.28-46.91-36.23-78.78.02-21.65-.01-43.29-.01-64.93z" style="fill:url(#SVGID_12_)"/><linearGradient id="SVGID_13_" gradientUnits="userSpaceOnUse" x1="361.421" y1="346.477" x2="449.513" y2="499.057"><stop offset="0" stop-color="#C8CBF2"/><stop offset="1" stop-color="#AFB0E7"/></linearGradient><path d="M411.59 435.75c23.18-5.61 40.41-26.11 40.41-50.49 0-28.68-23.85-52.01-53.17-52.01s-53.17 23.33-53.17 52.01c0 24.38 17.24 44.88 40.41 50.49v85.2h25.52v-36.38h32.67v-24.96h-32.67v-23.86zm-40.41-50.49c0-14.91 12.41-27.05 27.65-27.05s27.65 12.14 27.65 27.05-12.41 27.05-27.65 27.05-27.65-12.14-27.65-27.05z" style="fill:url(#SVGID_13_)"/><path class="st26" d="M407.67 439.03c21.8-5.39 38.01-25.1 38.01-48.54 0-27.58-22.43-50.01-50.01-50.01s-50.01 22.43-50.01 50.01c0 23.44 16.21 43.15 38.01 48.54v81.92h24v-34.98h30.73v-24h-30.73v-22.94zm-38.01-48.55c0-14.34 11.67-26.01 26.01-26.01s26.01 11.67 26.01 26.01-11.67 26.01-26.01 26.01-26.01-11.67-26.01-26.01z"/><linearGradient id="SVGID_14_" gradientUnits="userSpaceOnUse" x1="484.836" y1="475.674" x2="565.754" y2="615.828"><stop offset="0" stop-color="#C8CBF2"/><stop offset="1" stop-color="#AFB0E7"/></linearGradient><circle cx="525.3" cy="545.75" r="80.9" style="fill:url(#SVGID_14_)"/><linearGradient id="SVGID_15_" gradientUnits="userSpaceOnUse" x1="482.787" y1="483.323" x2="559.605" y2="616.376"><stop offset=".116" stop-color="#DEE4FF"/><stop offset=".847" stop-color="#C6D5F4"/></linearGradient><circle cx="521.2" cy="549.85" r="76.81" style="fill:url(#SVGID_15_)"/><path class="st26" d="M538.5 547.62l23.01-23.01c4.44-4.44 4.44-11.63 0-16.06-4.44-4.44-11.63-4.44-16.06 0l-23.01 23.01-23.01-23.01c-4.44-4.44-11.63-4.44-16.06 0-4.44 4.44-4.44 11.63 0 16.06l23.01 23.01-23.01 23.01c-4.44 4.44-4.44 11.63 0 16.06 2.22 2.22 5.13 3.33 8.03 3.33 2.91 0 5.81-1.11 8.03-3.33l23.01-23.01 23.01 23.01c2.22 2.22 5.13 3.33 8.03 3.33s5.81-1.11 8.03-3.33c4.44-4.44 4.44-11.63 0-16.06l-23.01-23.01z"/></g><g><linearGradient id="SVGID_16_" gradientUnits="userSpaceOnUse" x1="232.569" y1="558.709" x2="232.569" y2="484.191"><stop offset="0" stop-color="#C3D5FD"/><stop offset="1" stop-color="#1A90FC"/></linearGradient><path d="M224.88 484.54s-18.08-2.5-23.95 5.81-8.02 29.58-8.02 29.58l13.61-.72-1.15 24.78 25.11 14.72 35.77-19.24-5.44-22.45 11.43-2.98s-3.4-32.58-19.31-27.77c-8.17.87-10.74.73-10.74.73s-2.15 6.85-9.53 6.27c-7.38-.59-7.78-8.73-7.78-8.73z" style="fill:url(#SVGID_16_)"/><linearGradient id="SVGID_17_" gradientUnits="userSpaceOnUse" x1="233.602" y1="471.483" x2="233.602" y2="495.089"><stop offset="0" stop-color="#F4AE98"/><stop offset="1" stop-color="#FAD1BB"/></linearGradient><path d="M226.69 474.3l-3.76 16.76c-.18.79.23 1.59.98 1.89 1.94.79 5.83 2.13 9.82 2.13 4.15 0 8.06-2.27 9.86-3.48.62-.42.88-1.19.64-1.9l-5.75-17.09a1.643 1.643 0 00-1.86-1.1l-8.61 1.53c-.65.11-1.18.61-1.32 1.26z" style="fill:url(#SVGID_17_)"/><linearGradient id="SVGID_18_" gradientUnits="userSpaceOnUse" x1="-816.068" y1="920.854" x2="-804.529" y2="839.612" gradientTransform="rotate(-8.082 -2795.015 -6505.71)"><stop offset="0" stop-color="#C3D5FD"/><stop offset="1" stop-color="#1A90FC"/></linearGradient><path d="M204.24 487.44c5.26-1.75 12.4-.58 12.69 11.22s-11.28 30.62-7.13 37.16c4.2 6.63 13.17 16.05 18.89 21.41-1.33 6.3-4.91 11.61-4.91 11.61s-21.05-9.71-30.21-19.44c-9.17-9.73-4.54-32.03-.3-47.9 3.19-11.95 10.97-14.06 10.97-14.06z" style="fill:url(#SVGID_18_)"/><linearGradient id="SVGID_19_" gradientUnits="userSpaceOnUse" x1="-6575.898" y1="102.823" x2="-6564.359" y2="21.581" gradientTransform="scale(-1 1) rotate(-8.082 -118.103 -44396.273)"><stop offset="0" stop-color="#C3D5FD"/><stop offset="1" stop-color="#1A90FC"/></linearGradient><path d="M259.39 487.44c-5.26-1.75-12.4-.58-12.69 11.22s11.28 30.62 7.13 37.16c-4.2 6.63-13.17 16.05-18.89 21.41 1.33 6.3 4.91 11.61 4.91 11.61s21.05-9.71 30.21-19.44c9.17-9.73 4.54-32.03.3-47.9-3.19-11.95-10.97-14.06-10.97-14.06z" style="fill:url(#SVGID_19_)"/><linearGradient id="SVGID_20_" gradientUnits="userSpaceOnUse" x1="232.569" y1="531.798" x2="232.569" y2="579.152"><stop offset="0" stop-color="#275C89"/><stop offset="1" stop-color="#013F7C"/></linearGradient><path d="M206.79 579.15h51.1c2.31 0 4.38-1.75 5.19-4.4l10.3-33.89c1.34-4.4-1.33-9.07-5.19-9.07h-71.23c-3.82 0-6.48 4.6-5.21 8.98l9.84 33.89c.77 2.69 2.86 4.49 5.2 4.49z" style="fill:url(#SVGID_20_)"/><path class="st26" d="M204.75 594.74s-.79-1.74-1.4-1.93c-.61-.19-9.35-.54-12.53-1.36-3.19-.83-12.38-2.14-16.32 1.59-3.43 3.25-4.56 10.84.66 15.2 1.96 1.7 3.89 2.2 11.14 1.86 7.26-.34 17.78-.26 20.09-3.63-.07-5.55-1.64-11.73-1.64-11.73z"/><linearGradient id="SVGID_21_" gradientUnits="userSpaceOnUse" x1="-5720.751" y1="599.589" x2="-5703.986" y2="599.589" gradientTransform="matrix(-1 0 0 1 -5504.059 0)"><stop offset="0" stop-color="#F4B9A4"/><stop offset=".652" stop-color="#FAD1BB"/></linearGradient><path d="M212.86 592.81s-8.44 1.9-11.45 1.62-.49 11.87-.49 11.87 8.05.56 15.18-1.51c2.4-9.3-3.24-11.98-3.24-11.98z" style="fill:url(#SVGID_21_)"/><linearGradient id="SVGID_22_" gradientUnits="userSpaceOnUse" x1="209.839" y1="581.112" x2="296.322" y2="581.112"><stop offset="0" stop-color="#18264B"/><stop offset=".652" stop-color="#2D3C65"/></linearGradient><path d="M209.84 592.37l4.39 13.64s94.25-12.41 80.78-43c-11.27-25.57-85.17 29.36-85.17 29.36z" style="fill:url(#SVGID_22_)"/><linearGradient id="SVGID_23_" gradientUnits="userSpaceOnUse" x1="190.339" y1="591.445" x2="190.339" y2="609.24"><stop offset="0" stop-color="#FFDB80"/><stop offset="1" stop-color="#FFBB24"/></linearGradient><path d="M203.66 593.42s3.45 1.35 3.89 6.17c.44 4.82-.99 8.05-8.33 8.94s-9.21.56-13.81.67-11.29.56-12.27-8.2c-.99-8.75 7.96-10.98 17.24-8.75 2.92.56 13.28 1.17 13.28 1.17z" style="fill:url(#SVGID_23_)"/><g><path class="st26" d="M263.56 594.74s.79-1.74 1.4-1.93c.61-.19 9.35-.54 12.53-1.36 3.19-.83 11.75-2.2 16.08 1.49 4.01 3.42 4.27 11-.29 15.18-1.96 1.7-4.02 2.32-11.28 1.98-7.26-.34-17.78-.26-20.09-3.63.09-5.55 1.65-11.73 1.65-11.73z"/><linearGradient id="SVGID_24_" gradientUnits="userSpaceOnUse" x1="251.623" y1="599.589" x2="268.387" y2="599.589"><stop offset="0" stop-color="#F4B9A4"/><stop offset=".652" stop-color="#FAD1BB"/></linearGradient><path d="M255.45 592.81s8.44 1.9 11.45 1.62.49 11.87.49 11.87-8.05.56-15.18-1.51c-2.4-9.3 3.24-11.98 3.24-11.98z" style="fill:url(#SVGID_24_)"/><linearGradient id="SVGID_25_" gradientUnits="userSpaceOnUse" x1="171.993" y1="581.112" x2="258.476" y2="581.112"><stop offset="0" stop-color="#445677"/><stop offset="1" stop-color="#293861"/></linearGradient><path d="M258.48 592.37L254.09 606s-94.25-12.41-80.78-43c11.26-25.56 85.17 29.37 85.17 29.37z" style="fill:url(#SVGID_25_)"/><linearGradient id="SVGID_26_" gradientUnits="userSpaceOnUse" x1="277.976" y1="591.445" x2="277.976" y2="609.24"><stop offset="0" stop-color="#FFDB80"/><stop offset="1" stop-color="#FFBB24"/></linearGradient><path d="M264.66 593.42s-3.45 1.35-3.89 6.17.99 8.05 8.33 8.94c7.34.89 9.21.56 13.81.67s11.29.56 12.27-8.2c.99-8.75-7.96-10.98-17.24-8.75-2.92.56-13.28 1.17-13.28 1.17z" style="fill:url(#SVGID_26_)"/></g><linearGradient id="SVGID_27_" gradientUnits="userSpaceOnUse" x1="249.053" y1="466.067" x2="218.202" y2="466.067"><stop offset="0" stop-color="#F4B9A4"/><stop offset=".652" stop-color="#FAD1BB"/></linearGradient><path d="M248.39 467.6c.56-.8.91-2.84.46-3.44-.83-.67-1.61-.28-2.21.3.14-4.88-.31-8.94-.41-9.97-.3-2.99-3.35-8.48-13.3-8.48-9.95 0-11.88 7.18-11.88 7.18s-.65 5.08-.46 11.24c-.59-.57-1.37-.93-2.18-.27-.46.6-.1 2.64.46 3.44.56.8.91 2.69 1.02 3.74.1.99-.62 3.65 2 3.31 1.56 6.25 7.89 11.47 11.82 11.47 4.3 0 10.01-5.26 11.63-11.48 2.68.37 1.95-2.31 2.04-3.31.09-1.04.45-2.93 1.01-3.73z" style="fill:url(#SVGID_27_)"/><linearGradient id="SVGID_28_" gradientUnits="userSpaceOnUse" x1="213.957" y1="454.142" x2="249.774" y2="454.142"><stop offset="0" stop-color="#4F5C7C"/><stop offset="1" stop-color="#274168"/></linearGradient><path d="M240.1 443.88s-1.94-6.12-9.39-4.65c-7.44 1.46-7.95 4.98-10.87 5.12-4.99.23-8.97 6.45-2.58 13.03 2.85 2.93.44 4.19 1.79 6.78s1.34 5.12 1.34 5.12 2.38-7.6.81-10.84c-.81-1.67 2.77-2.13 7.24-1.73s11.51-1.08 12.06-4.12c1.32 6.23 2.64 6.88 4.31 7.83 1.68.95 1.78 8.48 1.78 8.48s.3-5.53 1.47-6.78c.96-2.04 2.85-10.07.72-12.02s-.32-8.19-8.68-6.22z" style="fill:url(#SVGID_28_)"/></g></g></svg>