<svg t="1729178183592" class="icon" viewBox="0 0 1300 1024" version="1.1" xmlns="http://www.w3.org/2000/svg" p-id="4332" width="200" height="200"><path d="M784.074702 99.196443l10.927871 18.473304-21.302843-2.56935-14.180213 16.066571-4.130475-21.042655-19.676671-8.521137 18.733492-10.440019 2.016452-21.335366 15.708814 14.603017 20.945085-4.683373-9.041512 19.449008zM1067.22363 642.402668l-18.440781 10.92787 2.56935-21.302842-16.099094-14.180213 21.042655-4.130475 8.521137-19.676671 10.440019 18.733492 21.367889 2.016452-14.603017 15.708814 4.683373 20.945085-19.481531-9.041512z" fill="#8a8a8a" p-id="4333"></path><path d="M1067.22363 642.402668l-18.440781 10.92787 2.56935-21.302842-16.099094-14.180213 21.042655-4.130475 8.521137-19.676671 10.440019 18.733492 21.367889 2.016452-14.603017 15.708814 4.683373 20.945085-19.481531-9.041512zM571.924408 100.009528l-17.400031-12.488994 20.52228-6.211974 6.504685-20.457234 12.261331 17.595172 21.432936-0.09757-12.944323 17.074798 6.732349 20.359663-20.262093-7.02506-17.269938 12.716659 0.422804-21.46546zM991.444053 784.43246l-21.172749 3.480006 10.114785-18.928632-9.822074-19.026203 21.107702 3.772717 15.090868-15.253486 2.927109 21.237796 19.156296 9.626933-19.318914 9.366746-3.219819 21.205273-14.863204-15.48115zM428.008258 156.795426l-20.749945-5.333841 16.879657-13.237034-1.365983-21.400413 17.822836 11.936097 19.936859-7.870669-5.88674 20.619851 13.692361 16.521899-21.432936 0.813086-11.513292 18.083024-7.382817-20.132zM854.260251 896.475655l-20.749945-5.333841 16.879657-13.237034-1.365983-21.400413 17.822836 11.96862 19.936859-7.903192-5.854217 20.619851 13.659838 16.554423-21.432936 0.780562-11.513292 18.115547-7.382817-20.164523zM562.460092 923.665237l10.895347 18.440782-21.302843-2.569351-14.180212 16.099095-4.130475-21.042655-19.676672-8.521137 18.733493-10.440019 2.016452-21.36789 15.708814 14.603018 20.945085-4.683373-9.008989 19.48153zM242.787359 420.788058l-18.473305 10.895347 2.569351-21.302843-16.066572-14.180213 21.042656-4.130474 8.521137-19.676672 10.440019 18.733492 21.335366 2.016453-14.603018 15.708813 4.683374 20.945085-19.449008-9.008988z" fill="#8a8a8a" p-id="4334"></path><path d="M242.787359 420.788058l-18.473305 10.895347 2.569351-21.302843-16.066572-14.180213 21.042656-4.130474 8.521137-19.676672 10.440019 18.733492 21.335366 2.016453-14.603018 15.708813 4.683374 20.945085-19.449008-9.008988zM700.814737 943.959854l-17.400032-12.521518 20.522281-6.211974 6.504685-20.42471 12.26133 17.595172 21.432937-0.130094-12.944323 17.107321 6.732349 20.359663-20.262093-7.025059-17.269938 12.684135 0.422804-21.432936zM303.541115 278.823313l-21.140226 3.480006 10.114785-18.928633-9.854597-19.058726 21.107702 3.772717 15.090868-15.220962 2.927109 21.237796 19.156296 9.626933-19.28639 9.366746-3.252342 21.172749-14.863205-15.448626z" fill="#8a8a8a" p-id="4335"></path><path d="M407.648595 90.642782a486.713038 486.713038 0 0 1 504.568397 11.578339l25.010513-14.407877A512.081309 512.081309 0 0 0 139.850723 547.401747l24.977989-14.407877a486.778085 486.778085 0 0 1 242.819883-442.351088zM893.28836 933.422265a486.810608 486.810608 0 0 1-504.568398-11.610863l-25.010513 14.407877a512.081309 512.081309 0 0 0 797.5394-459.621026l-24.97799 14.505447a486.843132 486.843132 0 0 1-242.982499 442.318565z" fill="#8a8a8a" p-id="4336"></path><path d="M814.061299 795.880705a326.665269 326.665269 0 0 1-258.170939 29.563792l-29.791456 17.172368a353.236906 353.236906 0 0 0 472.793013-272.448721l-29.693886 17.172367a326.762839 326.762839 0 0 1-155.136732 208.540194zM486.875655 228.119295a326.795363 326.795363 0 0 1 258.170939-29.563792l29.791456-17.172368a353.236906 353.236906 0 0 0-472.793013 272.448721l29.82398-17.172367a326.762839 326.762839 0 0 1 155.006638-208.540194zM1288.350389 374.73489a53.923837 53.923837 0 0 1-14.34283 12.001143L229.420232 988.712085A53.793743 53.793743 0 0 1 156.112434 968.937843l-148.924757-258.235985a53.76122 53.76122 0 0 1 19.741718-73.437891L1071.516722 35.352962A53.826266 53.826266 0 0 1 1144.82452 55.062157l148.827187 258.268508a53.793743 53.793743 0 0 1-5.398888 61.404225zM32.19819 665.754486a28.360426 28.360426 0 0 0-5.626553 10.73273 28.067715 28.067715 0 0 0 2.699444 21.432936L178.195839 956.188661a28.165285 28.165285 0 0 0 38.442687 10.342449l1044.587328-601.976052a28.132762 28.132762 0 0 0 10.440019-38.442687l-148.924758-258.268509a28.197808 28.197808 0 0 0-38.442687-10.342449L39.711101 659.444942a28.230332 28.230332 0 0 0-7.512911 6.309544z" fill="#8a8a8a" p-id="4337"></path><path d="M498.941845 597.390249l-138.322121 79.877529 38.637827 66.933207q8.000762 13.854979 21.595554 5.98431l114.254788-65.957504a21.172749 21.172749 0 0 0 9.952167-11.123011q2.634397-9.757027-16.91218-47.321582l18.440781-4.130474q20.489757 43.22363 18.148071 56.167953a36.166047 36.166047 0 0 1-16.261712 19.514054l-123.068636 71.031158q-25.17313 14.603017-40.394092-11.77348L317.103383 639.020232l16.066571-9.269176 18.570875 32.133143 122.027886-70.47826-33.596697-58.249452-150.160648 86.707448-9.041511-15.611243 166.454883-96.106718zM691.903319 563.663459c-3.935334 3.837764-9.757027 9.399269-17.497602 16.619469l23.319295 40.394093-15.611244 9.008988-21.237795-36.816516q-31.027346 27.709957-64.754137 54.314118l-12.814229-13.39965 9.171605-7.382818 9.236653-7.122629-79.714912-138.126982-17.627696 10.179832-8.781324-15.155915L601.683341 414.836271l6.960013 12.06619 86.34969-49.858408 8.488614 14.733111q28.197808 65.82741 30.506972 123.39387a274.660314 274.660314 0 0 0 69.339939 27.612387l-3.642623 18.440781a322.177037 322.177037 0 0 1-65.534699-26.40902 220.899095 220.899095 0 0 1-15.38358 72.819946l-18.14807-6.179451a215.272542 215.272542 0 0 0 15.448626-77.340702 312.940384 312.940384 0 0 1-89.374369-86.739971l-8.748801 5.138701-7.2202-12.488995-17.172368 9.919644 71.876767 124.499667q10.570113-10.017215 17.465079-16.61947z m-134.32174-56.948515l40.166428-23.189202-19.969382-34.702493-40.166429 23.189201z m28.067714 48.785135l40.166429-23.189201-19.514055-33.921931-40.166428 23.189201z m48.557472-8.813847l-40.166428 23.189201 21.888264 37.922312q13.334604-10.92787 35.775766-30.767159z m7.2202-117.832365A289.848753 289.848753 0 0 0 715.515325 503.365031a330.437986 330.437986 0 0 0-26.441544-101.92841zM812.760362 400.460918l-4.813467 17.95293a280.482007 280.482007 0 0 0-56.167953-12.781706l5.073654-17.530125a291.637542 291.637542 0 0 1 55.907766 12.358901z m24.360045 28.78323a925.063745 925.063745 0 0 1 10.017214 101.895887l-18.440781 2.016452a812.792886 812.792886 0 0 0-8.878895-101.375512z m-45.923075-86.25212l-4.813467 18.017977a290.922026 290.922026 0 0 0-58.542163-11.513292l5.073655-17.497602a308.972527 308.972527 0 0 1 58.281975 10.992917z m48.459902-17.562649l-9.334223 13.724885A298.792695 298.792695 0 0 0 783.814515 315.477211l9.757027-14.180212a437.635191 437.635191 0 0 1 46.085692 24.13238zM834.355916 269.944418l16.521899-9.529363 35.157821 60.916373 48.199714-27.840051L1003.282579 413.047483q12.716659 22.115928-8.228426 34.214642l-26.018739 15.058345-13.237034-13.009369 25.238177-13.952549c6.992536-4.065428 8.45609-9.561887 4.423186-16.554423l-12.716659-22.018358-80.527997 46.475973L919.762427 491.1037l-16.066572 9.269176-81.926505-141.899698 47.744387-27.579864z m107.750103 73.763125l-14.830682-25.660981-80.56052 46.508496 14.830681 25.726028z m-72.592282 60.330952l14.700587 25.433317 80.560521-46.508496-14.700587-25.433318z m45.532793-166.064603a222.720407 222.720407 0 0 1-2.406733 56.13543l-16.456853 0.878132a242.722312 242.722312 0 0 0 2.081499-55.647578z" fill="#8a8a8a" p-id="4338"></path></svg>