<?xml version="1.0" standalone="no"?><!DOCTYPE svg PUBLIC "-//W3C//DTD SVG 1.1//EN" "http://www.w3.org/Graphics/SVG/1.1/DTD/svg11.dtd"><svg t="1575802851180" class="icon" viewBox="0 0 1024 1024" version="1.1" xmlns="http://www.w3.org/2000/svg" p-id="2867" xmlns:xlink="http://www.w3.org/1999/xlink" width="200" height="200"><defs><style type="text/css"></style></defs><path d="M279.272727 791.272727h512a46.545455 46.545455 0 0 1 0 93.090909H279.272727a46.545455 46.545455 0 0 1 0-93.090909z m33.838546-617.984V651.636364H193.722182V395.170909c0-37.003636-0.884364-59.298909-2.653091-66.746182a24.948364 24.948364 0 0 0-14.615273-16.989091c-8.005818-3.863273-25.786182-5.771636-53.341091-5.771636h-11.822545v-55.854545c57.716364-12.381091 101.562182-37.888 131.490909-76.520728h70.283636z m303.709091 396.8V651.636364H354.164364v-68.235637c77.777455-127.255273 124.043636-206.010182 138.705454-236.218182 14.661818-30.254545 22.016-53.853091 22.016-70.74909 0-13.032727-2.234182-22.714182-6.656-29.137455-4.421818-6.376727-11.170909-9.588364-20.247273-9.588364a22.248727 22.248727 0 0 0-20.200727 10.612364c-4.468364 7.121455-6.656 21.178182-6.656 42.263273v45.521454H354.164364v-17.454545c0-26.763636 1.396364-47.941818 4.142545-63.348364 2.746182-15.499636 9.541818-30.72 20.386909-45.661091 10.798545-14.987636 24.901818-26.298182 42.216727-33.978182 17.361455-7.68 38.167273-11.543273 62.37091-11.543272 47.476364 0 83.316364 11.776 107.706181 35.328 24.296727 23.552 36.445091 53.341091 36.445091 89.367272 0 27.368727-6.842182 56.32-20.48 86.853819-13.730909 30.533818-54.039273 95.325091-121.018182 194.420363h130.885819z m270.615272-189.393454c18.152727 6.097455 31.650909 16.104727 40.494546 29.975272 8.843636 13.917091 13.312 46.452364 13.312 97.652364 0 38.027636-4.328727 67.490909-13.032727 88.529455-8.657455 20.945455-23.598545 36.910545-44.869819 47.848727-21.271273 10.938182-48.593455 16.384-81.873454 16.384-37.794909 0-67.490909-6.330182-89.088-19.083636-21.550545-12.660364-35.746909-28.253091-42.542546-46.638546-6.795636-18.432-10.193455-50.362182-10.193454-95.883636v-37.841455h119.389091v77.730909c0 20.666182 1.210182 33.838545 3.723636 39.424 2.420364 5.585455 7.912727 8.424727 16.337455 8.424728 9.309091 0 15.36-3.537455 18.338909-10.612364 2.932364-7.121455 4.421818-25.6 4.421818-55.575273v-33.047273c0-18.338909-2.048-31.744-6.190546-40.215272a30.72 30.72 0 0 0-18.338909-16.709818c-8.052364-2.653091-23.738182-4.189091-46.964363-4.561455V357.050182c28.392727 0 45.893818-1.070545 52.596363-3.258182a22.946909 22.946909 0 0 0 14.475637-14.149818c2.932364-7.307636 4.421818-18.711273 4.421818-34.257455v-26.624c0-16.756364-1.722182-27.741091-5.12-33.047272-3.490909-5.352727-8.843636-8.005818-16.151273-8.005819-8.285091 0-13.963636 2.792727-16.989091 8.378182-3.025455 5.632-4.561455 17.640727-4.561454 35.933091v39.284364h-119.389091v-40.773818c0-45.661091 10.472727-76.567273 31.325091-92.625455 20.898909-16.058182 54.085818-24.064 99.607272-24.064 56.878545 0 95.511273 11.170909 115.805091 33.373091 20.293818 22.248727 30.394182 53.201455 30.394182 92.765091 0 26.810182-3.630545 46.173091-10.891636 58.088727-7.307636 11.915636-20.107636 22.807273-38.446546 32.628364z" p-id="2868"></path></svg>