<?xml version="1.0" standalone="no"?><!DOCTYPE svg PUBLIC "-//W3C//DTD SVG 1.1//EN" "http://www.w3.org/Graphics/SVG/1.1/DTD/svg11.dtd"><svg t="1575966775973" class="icon" viewBox="0 0 1024 1024" version="1.1" xmlns="http://www.w3.org/2000/svg" p-id="879" xmlns:xlink="http://www.w3.org/1999/xlink" width="81" height="81"><defs><style type="text/css"></style></defs><path d="M507.39346659 71.84873358c241.53533667 0 437.39770766 195.85422109 437.39770767 437.37442191 0 241.53766571-195.86237099 437.38955776-437.39770767 437.38955776-241.50040803 0-437.34997219-195.85189205-437.34997219-437.38955776C70.0434944 267.70295467 265.89189347 71.84873358 507.39346659 71.84873358L507.39346659 71.84873358zM507.39346659 282.81899805c-125.00686734 0-226.37039389 101.38914133-226.37039388 226.41813048 0 125.01268821 101.36352768 226.39717262 226.37039388 226.39717262 125.04295993 0 226.42395136-101.38448441 226.42395136-226.39717262C733.81625401 384.20813938 632.43642653 282.81899805 507.39346659 282.81899805L507.39346659 282.81899805zM507.39346659 120.78172615c-214.46664192 0-388.42047261 173.95150279-388.4204726 388.44026539 0 214.51204949 173.95499463 388.46122325 388.4204726 388.46122325 214.52369237 0 388.46005817-173.94800981 388.46005818-388.46122325C895.85236082 294.73322894 721.91715897 120.78172615 507.39346659 120.78172615z" p-id="880"></path></svg>