<?xml version="1.0" standalone="no"?><!DOCTYPE svg PUBLIC "-//W3C//DTD SVG 1.1//EN" "http://www.w3.org/Graphics/SVG/1.1/DTD/svg11.dtd"><svg t="1577246781606" class="icon" viewBox="0 0 1069 1024" version="1.1" xmlns="http://www.w3.org/2000/svg" p-id="1098" xmlns:xlink="http://www.w3.org/1999/xlink" width="84.5595703125" height="81"><defs><style type="text/css"></style></defs><path d="M633.72929961 378.02038203l9.49872568 18.68789795 20.78025469 2.79745225 206.61592412 27.33248408a11.46496817 11.46496817 0 0 1 6.6095543 19.47324902l-147.2675168 147.35350284-14.89299345 14.89299345 3.8006376 20.68280244 37.84585956 204.89044571a11.46496817 11.46496817 0 0 1-16.4808914 12.2961788L554.68980898 751.84713388l-18.68789794-9.49299345-18.48726123 9.99171915-183.23885392 99.34968163a11.46496817 11.46496817 0 0 1-16.78471347-11.8662416l32.5433127-205.79617881 3.29617793-20.78598692-15.19108243-14.49172002-151.03375839-143.48407587a11.46496817 11.46496817 0 0 1 6.09936328-19.63949062l205.79617881-32.63503185 20.78598691-3.2961788L428.87898125 380.72038203 518.59235674 192.64331182a11.46496817 11.46496817 0 0 1 20.56815264-0.26369385l94.56879023 185.63503183zM496.64840732 85.52038203l-121.75796162 254.98089229L95.76433145 384.76178369A34.3949045 34.3949045 0 0 0 77.46050938 443.66879023l204.87324901 194.66369385-44.16879023 279.1146498a34.3949045 34.3949045 0 0 0 50.36560489 35.61592325l248.4-134.67898038 251.84522285 128.27579591a34.3949045 34.3949045 0 0 0 49.43694287-36.89426777l-51.30573223-277.85350284 199.73120977-199.90891758a34.3949045 34.3949045 0 0 0-19.82866201-58.40827998l-280.11783428-37.03184736L558.32993633 84.71210205a34.3949045 34.3949045 0 0 0-61.68152901 0.80254775z" p-id="1099"></path></svg>