<?xml version="1.0" standalone="no"?><!DOCTYPE svg PUBLIC "-//W3C//DTD SVG 1.1//EN" "http://www.w3.org/Graphics/SVG/1.1/DTD/svg11.dtd"><svg t="1588552949749" class="icon" viewBox="0 0 1024 1024" version="1.1" xmlns="http://www.w3.org/2000/svg" p-id="1802" xmlns:xlink="http://www.w3.org/1999/xlink" width="200" height="200"><defs><style type="text/css"></style></defs><path d="M834.2654461 933.87476599H189.7345539A99.37494442 99.37494442 0 0 1 90.12523401 834.2654461V189.7345539A99.37494442 99.37494442 0 0 1 189.7345539 90.12523401h644.53089221A99.37494442 99.37494442 0 0 1 933.87476599 189.7345539v644.53089221A99.37494442 99.37494442 0 0 1 834.2654461 933.87476599zM189.7345539 140.04708127a49.68747262 49.68747262 0 0 0-49.68747263 49.68747263v644.53089221a49.68747262 49.68747262 0 0 0 49.68747262 49.68747262h644.53089221a49.68747262 49.68747262 0 0 0 49.68747263-49.68747262V189.7345539a49.68747262 49.68747262 0 0 0-49.68747263-49.68747263z" p-id="1803"></path><path d="M561.68747262 239.18765188h247.73423676a23.43748728 23.43748728 0 0 1 24.84373673 24.84373591 23.43748728 23.43748728 0 0 1-24.84373673 24.84373589H561.68747262a23.43748728 23.43748728 0 0 1-24.84373672-24.84373589 23.43748728 23.43748728 0 0 1 24.84373672-24.84373591z m0 123.9843057h247.73423676a24.84373591 24.84373591 0 0 1 0 49.68747262H561.68747262a24.84373591 24.84373591 0 1 1 0-49.68747262z m0 123.98430652h247.73423676a24.84373591 24.84373591 0 0 1 0 49.68747181H561.68747262a24.84373591 24.84373591 0 0 1 0-49.68747181zM214.57829062 611.1405698h594.84341876a24.84373591 24.84373591 0 0 1 0 49.68747263H214.57829062a24.84373591 24.84373591 0 0 1 0-49.68747263z m0 123.98430652h594.84341876a24.84373591 24.84373591 0 0 1 0 49.6874718H214.57829062a24.84373591 24.84373591 0 1 1 0-49.6874718z m52.03122061-280.07797001h133.82805103l32.10935696 81.79682959h46.87497372l-123.51555642-297.65608402H311.14073697l-121.40618308 297.65608403h46.87497373z m61.87496594-156.32803812a171.56240497 171.56240497 0 0 0 4.92187226-19.68748901 72.18745972 72.18745972 0 0 1 5.15624688 19.68748901l49.45309717 123.98430652H279.03137918z" p-id="1804"></path></svg>