<?xml version="1.0" standalone="no"?><!DOCTYPE svg PUBLIC "-//W3C//DTD SVG 1.1//EN" "http://www.w3.org/Graphics/SVG/1.1/DTD/svg11.dtd"><svg t="1575804206892" class="icon" viewBox="0 0 1024 1024" version="1.1" xmlns="http://www.w3.org/2000/svg" p-id="3145" xmlns:xlink="http://www.w3.org/1999/xlink" width="200" height="200"><defs><style type="text/css"></style></defs><path d="M826.56 470.016c-32.896 0-64.384 12.288-89.984 35.52l0-104.96c0-62.208-50.496-112.832-112.64-113.088L623.936 287.04 519.552 287.104C541.824 262.72 554.56 230.72 554.56 197.12c0-73.536-59.904-133.44-133.504-133.44-73.472 0-133.376 59.904-133.376 133.44 0 32.896 12.224 64.256 35.52 89.984L175.232 287.104l0 0.576C113.728 288.704 64 338.88 64 400.576l0.32 0 0.32 116.48C60.864 544.896 70.592 577.728 100.8 588.48c12.736 4.608 37.632 7.488 60.864-25.28 12.992-18.368 34.24-29.248 56.64-29.248 38.336 0 69.504 31.104 69.504 69.312 0 38.4-31.168 69.504-69.504 69.504-22.656 0-44.032-11.264-57.344-30.4C138.688 610.112 112.576 615.36 102.464 619.136c-29.824 10.752-39.104 43.776-38.144 67.392l0 160.384L64 846.912C64 909.248 114.752 960 177.216 960l446.272 0c62.4 0 113.152-50.752 113.152-113.152l0-145.024c24.384 22.272 56.384 35.008 89.984 35.008 73.536 0 133.44-59.904 133.44-133.504C960 529.92 900.096 470.016 826.56 470.016zM826.56 672.896c-22.72 0-44.032-11.264-57.344-30.4-22.272-32.384-48.448-27.136-58.56-23.36-29.824 10.752-39.04 43.776-38.08 67.392l0 160.384c0 27.136-22.016 49.152-49.152 49.152L177.216 896.064C150.08 896 128 873.984 128 846.848l0.32 0 0-145.024c24.384 22.272 56.384 35.008 89.984 35.008 73.6 0 133.504-59.904 133.504-133.504 0-73.472-59.904-133.376-133.504-133.376-32.896 0-64.32 12.288-89.984 35.52l0-104.96L128 400.512c0-27.072 22.08-49.152 49.216-49.152L177.216 351.04 334.656 350.72c3.776 0.512 7.616 0.832 11.52 0.832 24.896 0 50.752-10.816 60.032-37.056 4.544-12.736 7.424-37.568-25.344-60.736C362.624 240.768 351.68 219.52 351.68 197.12c0-38.272 31.104-69.44 69.376-69.44 38.336 0 69.504 31.168 69.504 69.44 0 22.72-11.264 44.032-30.528 57.472C427.968 276.736 433.088 302.784 436.8 313.024c10.752 29.888 43.072 39.232 67.392 38.08l119.232 0 0 0.384c27.136 0 49.152 22.08 49.152 49.152l0.256 116.48c-3.776 27.84 6.016 60.736 36.224 71.488 12.736 4.608 37.632 7.488 60.8-25.28 13.056-18.368 34.24-29.248 56.704-29.248C864.832 534.016 896 565.12 896 603.392 896 641.728 864.832 672.896 826.56 672.896z" p-id="3146"></path></svg>