<?xml version="1.0" standalone="no"?><!DOCTYPE svg PUBLIC "-//W3C//DTD SVG 1.1//EN" "http://www.w3.org/Graphics/SVG/1.1/DTD/svg11.dtd"><svg t="1579774833889" class="icon" viewBox="0 0 1024 1024" version="1.1" xmlns="http://www.w3.org/2000/svg" p-id="1376" xmlns:xlink="http://www.w3.org/1999/xlink" width="200" height="200"><defs><style type="text/css"></style></defs><path d="M887.466667 192.853333h-100.693334V119.466667c0-10.24-6.826667-17.066667-17.066666-17.066667s-17.066667 6.826667-17.066667 17.066667v73.386666H303.786667V119.466667c0-10.24-6.826667-17.066667-17.066667-17.066667s-17.066667 6.826667-17.066667 17.066667v73.386666H168.96c-46.08 0-85.333333 37.546667-85.333333 85.333334V836.266667c0 46.08 37.546667 85.333333 85.333333 85.333333H887.466667c46.08 0 85.333333-37.546667 85.333333-85.333333V278.186667c0-47.786667-37.546667-85.333333-85.333333-85.333334z m-718.506667 34.133334h100.693333v66.56c0 10.24 6.826667 17.066667 17.066667 17.066666s17.066667-6.826667 17.066667-17.066666v-66.56h450.56v66.56c0 10.24 6.826667 17.066667 17.066666 17.066666s17.066667-6.826667 17.066667-17.066666v-66.56H887.466667c27.306667 0 51.2 22.186667 51.2 51.2v88.746666H117.76v-88.746666c0-29.013333 22.186667-51.2 51.2-51.2zM887.466667 887.466667H168.96c-27.306667 0-51.2-22.186667-51.2-51.2V401.066667H938.666667V836.266667c0 27.306667-22.186667 51.2-51.2 51.2z" p-id="1377"></path><path d="M858.453333 493.226667H327.68c-10.24 0-17.066667 6.826667-17.066667 17.066666v114.346667h-116.053333c-10.24 0-17.066667 6.826667-17.066667 17.066667v133.12c0 10.24 6.826667 17.066667 17.066667 17.066666H460.8c10.24 0 17.066667-6.826667 17.066667-17.066666v-114.346667h380.586666c10.24 0 17.066667-6.826667 17.066667-17.066667v-133.12c0-10.24-6.826667-17.066667-17.066667-17.066666z m-413.013333 34.133333v97.28h-98.986667v-97.28h98.986667z m-230.4 131.413333h98.986667v98.986667h-98.986667v-98.986667z m131.413333 97.28v-97.28h98.986667v97.28h-98.986667z m133.12-228.693333h97.28v98.986667h-97.28v-98.986667z m131.413334 0h98.986666v98.986667h-98.986666v-98.986667z m230.4 97.28h-98.986667v-98.986667h98.986667v98.986667z" p-id="1378"></path></svg>