<svg class="icon" viewBox="0 0 1024 1024" xmlns="http://www.w3.org/2000/svg" width="200" height="200"><defs><style/></defs><path d="M960 591.424V368.96c0-.288.16-.512.16-.768s-.16-.512-.16-.768V192a32 32 0 00-32-32H96a32 32 0 00-32 32v175.424c0 .288-.16.512-.16.768s.16.48.16.768v222.464c0 .288-.16.512-.16.768s.16.48.16.768V864a32 32 0 0032 32h832a32 32 0 0032-32V592.96c0-.288.16-.512.16-.768s-.16-.512-.16-.768zm-560-31.232v-160h208v160H400zm208 64V832H400V624.192h208zm-480-224h208v160H128v-160zm544 0h224v160H672v-160zM896 224v112.192H128V224h768zM128 624.192h208V832H128V624.192zM672 832V624.192h224V832H672z"/></svg>