<svg class="icon" viewBox="0 0 1024 1024" xmlns="http://www.w3.org/2000/svg" width="81" height="81"><defs><style/></defs><path d="M772.87 734.061c-43.34 0-80.008 27.933-93.768 66.577H475.91c-56.607 0-102.667-46.06-102.667-102.667v-97.147h305.86c13.76 38.645 50.426 66.578 93.767 66.578 55.124 0 99.948-44.825 99.948-99.949s-44.824-99.948-99.948-99.948c-43.34 0-80.008 27.933-93.768 66.578h-305.86V401.01H695.17c55.123 0 99.948-44.825 99.948-99.949V190.073c0-55.124-44.825-99.948-99.948-99.948H251.13c-55.124 0-99.948 44.824-99.948 99.948v110.99c0 55.123 44.824 99.948 99.948 99.948h55.536v296.96c0 93.356 75.97 169.327 169.326 169.327h203.192c13.76 38.644 50.428 66.577 93.769 66.577 55.124 0 99.948-44.824 99.948-99.948s-44.907-99.866-100.03-99.866zm0-199.896c18.375 0 33.289 14.914 33.289 33.288s-14.914 33.29-33.289 33.29-33.288-14.915-33.288-33.29 14.914-33.288 33.288-33.288zM217.76 301.063v-110.99c0-18.375 14.914-33.288 33.288-33.288h444.04c18.375 0 33.289 14.913 33.289 33.288v110.99c0 18.374-14.914 33.288-33.289 33.288H251.13c-18.375 0-33.371-14.914-33.371-33.289zM772.87 867.298c-18.374 0-33.288-14.914-33.288-33.289 0-18.374 14.914-33.288 33.288-33.288s33.289 14.914 33.289 33.288c.082 18.293-14.914 33.289-33.289 33.289z"/></svg>