<?xml version="1.0" standalone="no"?><!DOCTYPE svg PUBLIC "-//W3C//DTD SVG 1.1//EN" "http://www.w3.org/Graphics/SVG/1.1/DTD/svg11.dtd"><svg t="1575982282951" class="icon" viewBox="0 0 1024 1024" version="1.1" xmlns="http://www.w3.org/2000/svg" p-id="902" xmlns:xlink="http://www.w3.org/1999/xlink" width="200" height="200"><defs><style type="text/css"></style></defs><path d="M828.40625 90.125H195.59375C137.375 90.125 90.125 137.375 90.125 195.59375v632.8125c0 58.21875 47.25 105.46875 105.46875 105.46875h632.8125c58.21875 0 105.46875-47.25 105.46875-105.46875V195.59375c0-58.21875-47.25-105.46875-105.46875-105.46875z m52.734375 738.28125c0 29.16-23.57015625 52.734375-52.734375 52.734375H195.59375c-29.109375 0-52.734375-23.574375-52.734375-52.734375V195.59375c0-29.109375 23.625-52.734375 52.734375-52.734375h632.8125c29.16 0 52.734375 23.625 52.734375 52.734375v632.8125z" p-id="903"></path><path d="M421.52890625 709.55984375a36.28125 36.28125 0 0 1-27.55265625-12.66890625L205.17453125 476.613125a36.28546875 36.28546875 0 0 1 55.10109375-47.22890625l164.986875 192.4846875 342.16171875-298.48078125a36.2896875 36.2896875 0 0 1 47.70984375 54.68765625L445.3859375 700.6203125a36.3234375 36.3234375 0 0 1-23.85703125 8.93953125z" p-id="904"></path></svg>