<svg class="icon" viewBox="0 0 1024 1024" xmlns="http://www.w3.org/2000/svg" width="81" height="81"><defs><style/></defs><path d="M747.593 691.129c11.514.253 22.438-.211 40.742-1.519 29.354-2.109 35.85-2.362 46.478-.885 24.715 3.374 41.121 21.762 32.475 47.953-85.574 258.2-442.001 249.765-628.67 50.738-153.478-159.34-153.099-414.419.927-573.421 159.72-162.672 424.034-166.594 565.787.633 80.387 94.81 108.35 169.166 89.117 230.574-15.014 47.996-50.61 77.688-119.779 114.634-4.892 2.657-29.354 15.52-35.85 19.02-46.94 25.306-63.516 41.207-62.208 58.456 2.952 39.14 24.166 52.72 70.981 53.817zm44.411 50.104c-19.822 1.434-32.053 1.94-45.634 1.645-70.349-1.603-115.983-30.915-121.381-101.643-3.459-46.056 24.757-73.133 89.243-107.97 6.79-3.67 31.38-16.575 36.06-19.063 57.697-30.83 85.153-53.732 94.77-84.478 12.779-40.784-9.11-98.945-79.249-181.651-121.17-142.976-350.142-139.602-489.238 2.067-134.498 138.842-134.793 362.12-.421 501.637C434.692 920.775 728.15 932.964 810.73 739.968c-4.681.295-10.712.675-18.726 1.265z"/><path d="M346.039 637.186a78.826 78.826 0 0078.32-79.29c0-43.694-35.006-79.29-78.32-79.29a78.826 78.826 0 00-78.363 79.29c0 43.694 35.006 79.29 78.363 79.29zm0-51.75a27.077 27.077 0 01-26.571-27.54c0-15.31 11.978-27.541 26.57-27.541 14.551 0 26.571 12.23 26.571 27.54a27.077 27.077 0 01-26.57 27.541zm129.69 221.676a78.826 78.826 0 0078.362-79.29c0-43.695-34.963-79.29-78.32-79.29a78.826 78.826 0 00-78.32 79.29c0 43.693 34.963 79.29 78.32 79.29zm0-51.75a27.077 27.077 0 01-26.57-27.54c0-15.31 12.061-27.541 26.57-27.541 14.593 0 26.57 12.23 26.57 27.54a27.077 27.077 0 01-26.57 27.541zm125.515-378.147a78.826 78.826 0 0078.32-79.29c0-43.694-34.964-79.29-78.32-79.29a78.826 78.826 0 00-78.32 79.29c0 43.694 34.963 79.29 78.32 79.29zm0-51.75a27.077 27.077 0 01-26.57-27.54c0-15.31 11.977-27.541 26.57-27.541 14.55 0 26.57 12.23 26.57 27.54a27.077 27.077 0 01-26.57 27.541zM378.809 433.857a78.826 78.826 0 0078.32-79.29c0-43.694-34.963-79.29-78.32-79.29a78.826 78.826 0 00-78.32 79.29c0 43.694 34.964 79.29 78.32 79.29zm0-51.75a27.077 27.077 0 01-26.57-27.54c0-15.31 11.977-27.541 26.57-27.541 14.55 0 26.57 12.23 26.57 27.54a27.077 27.077 0 01-26.57 27.541z"/></svg>