<svg class="icon" viewBox="0 0 1024 1024" xmlns="http://www.w3.org/2000/svg" width="200" height="200"><defs><style/></defs><path d="M826.56 470.016c-32.896 0-64.384 12.288-89.984 35.52v-104.96c0-62.208-50.496-112.832-112.64-113.088v-.448l-104.384.064c22.272-24.384 35.008-56.384 35.008-89.984 0-73.536-59.904-133.44-133.504-133.44-73.472 0-133.376 59.904-133.376 133.44 0 32.896 12.224 64.256 35.52 89.984H175.232v.576C113.728 288.704 64 338.88 64 400.576h.32l.32 116.48c-3.776 27.84 5.952 60.672 36.16 71.424 12.736 4.608 37.632 7.488 60.864-25.28 12.992-18.368 34.24-29.248 56.64-29.248 38.336 0 69.504 31.104 69.504 69.312 0 38.4-31.168 69.504-69.504 69.504-22.656 0-44.032-11.264-57.344-30.4-22.272-32.256-48.384-27.008-58.496-23.232-29.824 10.752-39.104 43.776-38.144 67.392v160.384H64C64 909.248 114.752 960 177.216 960h446.272c62.4 0 113.152-50.752 113.152-113.152V701.824c24.384 22.272 56.384 35.008 89.984 35.008 73.536 0 133.44-59.904 133.44-133.504C960 529.92 900.096 470.016 826.56 470.016zm0 202.88c-22.72 0-44.032-11.264-57.344-30.4-22.272-32.384-48.448-27.136-58.56-23.36-29.824 10.752-39.04 43.776-38.08 67.392v160.384c0 27.136-22.016 49.152-49.152 49.152H177.216C150.08 896 128 873.984 128 846.848h.32V701.824c24.384 22.272 56.384 35.008 89.984 35.008 73.6 0 133.504-59.904 133.504-133.504 0-73.472-59.904-133.376-133.504-133.376-32.896 0-64.32 12.288-89.984 35.52v-104.96H128c0-27.072 22.08-49.152 49.216-49.152v-.32l157.44-.32c3.776.512 7.616.832 11.52.832 24.896 0 50.752-10.816 60.032-37.056 4.544-12.736 7.424-37.568-25.344-60.736-18.24-12.992-29.184-34.24-29.184-56.64 0-38.272 31.104-69.44 69.376-69.44 38.336 0 69.504 31.168 69.504 69.44 0 22.72-11.264 44.032-30.528 57.472-32.064 22.144-26.944 48.192-23.232 58.432 10.752 29.888 43.072 39.232 67.392 38.08h119.232v.384c27.136 0 49.152 22.08 49.152 49.152l.256 116.48c-3.776 27.84 6.016 60.736 36.224 71.488 12.736 4.608 37.632 7.488 60.8-25.28 13.056-18.368 34.24-29.248 56.704-29.248 38.272-.064 69.44 31.04 69.44 69.312 0 38.336-31.168 69.504-69.44 69.504z"/></svg>