<svg class="icon" viewBox="0 0 1070 1024" xmlns="http://www.w3.org/2000/svg" width="208.984" height="200"><defs><style/></defs><path d="M682.217 1024a35.281 35.281 0 01-18.618-7.913 46.639 46.639 0 01-12.102-16.337l-3.258-8.378a19.55 19.55 0 01-3.259-4.655 139.916 139.916 0 00-35.793-46.685 104.448 104.448 0 00-134.889 0c-19.083 15.08-33.699 35.049-42.356 57.856a37.748 37.748 0 01-16.245 19.084 75.299 75.299 0 01-58.6 0 320.791 320.791 0 01-38.168-13.499 185.903 185.903 0 01-34.397-19.083 95.511 95.511 0 01-20.945-21.039 33.652 33.652 0 01-6.051-18.152 59.114 59.114 0 016.05-28.952 110.841 110.841 0 009.31-57.856 100.399 100.399 0 00-27.927-59.718 71.121 71.121 0 00-37.19-21.41 159.558 159.558 0 00-41.891-3.724 184.178 184.178 0 00-46.499 8.844 46.406 46.406 0 01-30.72 0 50.27 50.27 0 01-22.295-20.527 237.661 237.661 0 01-18.618-35.002 219.23 219.23 0 01-12.568-39.657 93.556 93.556 0 010-33.56 35.002 35.002 0 0121.877-30.812 154.903 154.903 0 0059.112-43.38c16.896-18.433 26.345-42.59 26.531-67.631a96.256 96.256 0 00-26.065-67.165 163.955 163.955 0 00-59.113-41.984 30.255 30.255 0 01-16.29-15.872A56.087 56.087 0 0131 359.284c.465-10.891 2.14-21.736 5.12-32.21a217.367 217.367 0 0127.927-64.371 68.205 68.205 0 0120.48-20.48 22.76 22.76 0 0116.756-4.702c6.144.792 12.241 2.235 18.153 4.19a130.883 130.883 0 0068.328 8.378 111.877 111.877 0 0062.837-31.232c8.89-8.844 15.592-19.736 19.549-31.698 3.77-12.334 6.283-24.995 7.447-37.795a168.401 168.401 0 000-34.07c0-9.31 0-16.757-2.793-21.877a113.105 113.105 0 01-3.723-13.592 23.366 23.366 0 010-16.29c5.306-11.637 14.056-21.411 25.088-28.02 11.45-7.914 23.784-14.43 36.77-19.55 12.521-4.794 25.414-8.518 38.587-11.217 10.38-2.467 20.945-3.91 31.65-4.19a28.812 28.812 0 0122.296 9.31 56.095 56.095 0 0111.636 19.13 131.497 131.497 0 0039.564 52.27c39.33 29.324 93.184 29.324 132.515 0 19.177-13.498 33.792-32.581 41.89-54.597l2.328-4.655a92.177 92.177 0 0111.636-13.498l3.259-3.77a59.3 59.3 0 0146.499 0 212.905 212.905 0 0135.374 12.101c11.683 4.98 22.668 11.544 32.535 19.596a107.166 107.166 0 0123.739 26.624c3.258 5.772 4.375 12.567 3.258 19.084a50.502 50.502 0 01-5.12 15.872c-9.17 20.806-12.102 43.846-8.378 66.234 3.677 23.412 14.754 45.01 31.65 61.58 17.222 17.314 40.262 27.601 64.606 28.95a142.895 142.895 0 0071.214-12.566c6.423-3.817 13.964-5.26 21.364-4.236 8.565.28 16.71 3.724 22.808 9.774 12.94 13.312 22.947 29.184 29.323 46.686a269.446 269.446 0 0117.176 63.441 38.353 38.353 0 01-6.051 28.858 40.96 40.96 0 01-17.222 14.057 128.935 128.935 0 00-58.135 42.45 107.985 107.985 0 00-25.135 70.423c-.465 23.365 6.516 46.22 20.015 65.303a112.64 112.64 0 0053.061 40.122 23.273 23.273 0 0110.24 7.447h2.793a46.973 46.973 0 0115.78 23.32 31.453 31.453 0 010 4.189 97.745 97.745 0 010 29.882 187.173 187.173 0 01-10.706 37.795 167.861 167.861 0 01-18.619 34.49 67.025 67.025 0 01-24.203 21.923c-14.476 7.913-31.977 7.913-46.5 0a229.236 229.236 0 00-27.46-6.051 131.724 131.724 0 00-33.467 0 159.65 159.65 0 00-33.978 6.982 65.583 65.583 0 00-28.812 18.665 108.358 108.358 0 00-30.72 62.51 124.554 124.554 0 009.775 67.165 42.077 42.077 0 01-3.259 43.893 86.575 86.575 0 01-20.945 18.152 225.605 225.605 0 01-31.139 17.269 195.444 195.444 0 01-35.84 12.101 150.807 150.807 0 01-31.604 5.167zM304.08 940.963l7.913 6.516c8.1 5.772 16.85 10.613 26.066 14.476a271.905 271.905 0 0033 11.636 82.735 82.735 0 0020.48 3.724 179.526 179.526 0 0154.412-72.285 150.807 150.807 0 01194.42 0 187.18 187.18 0 0146.546 55.063 22.2 22.2 0 015.12 7.447l3.258 8.844h12.055c9.31-2.188 18.293-5.306 26.997-9.31a191.943 191.943 0 0025.134-13.497l6.982-4.655a172.125 172.125 0 01-13.033-90.996 152.67 152.67 0 0142.776-88.623 111.616 111.616 0 0148.826-31.232 203.556 203.556 0 0143.752-9.309 179.48 179.48 0 0146.5 0c11.636 1.862 23.132 4.469 34.443 7.913h9.263a22.807 22.807 0 006.981-7.447A120.648 120.648 0 00999.471 704a141.77 141.77 0 008.378-28.905c.372-4.189.372-8.424 0-12.614l-3.258-2.327a158.673 158.673 0 01-71.68-55.063 155.648 155.648 0 01-28.812-93.277 153.274 153.274 0 0134.444-97.978 176.108 176.108 0 0169.306-53.62 216.902 216.902 0 00-13.498-46.686 108.311 108.311 0 00-13.499-25.6 187.904 187.904 0 01-89.786 14.895 144.012 144.012 0 01-92.998-42.915 156.393 156.393 0 01-46.545-87.226 165.562 165.562 0 0111.17-90.485 89.74 89.74 0 00-29.788-20.992 161.978 161.978 0 00-27.881-9.309l-13.964-4.7a161.373 161.373 0 01-55.342 73.215 157.324 157.324 0 01-190.697-2.793 178.641 178.641 0 01-52.596-70.423h-11.637a204.241 204.241 0 00-31.139 9.31 139.404 139.404 0 00-27.461 14.475l-3.724 2.793v6.05c0 8.844 2.793 17.269 3.724 27.09a213.27 213.27 0 010 42.915 222.365 222.365 0 01-9.775 46.638c-6.05 19.55-16.756 37.237-31.139 51.759-24.203 24.064-55.529 39.564-89.32 44.311a175.337 175.337 0 01-90.206-10.24v2.327a143.825 143.825 0 00-12.101 22.389 170.124 170.124 0 00-8.844 26.577 90.298 90.298 0 00-3.258 25.693 211.177 211.177 0 0170.702 51.247c24.902 26.67 38.726 61.905 38.633 98.444a146.246 146.246 0 01-38.167 97.931c-19.41 23.133-43.753 41.612-71.168 54.133a63.663 63.663 0 000 13.963 175.756 175.756 0 0024.669 58.787l2.793 3.724a198.097 198.097 0 01112.081-6.051c23.412 5.12 44.684 17.361 60.975 35.002a145.687 145.687 0 0141.378 87.692 157.793 157.793 0 01-13.498 81.64l-1.862 5.12zM77.545 360.262L58.927 373.76l18.618-9.775v-3.723zM405.923 25.74L388.7 41.1l3.724 3.258 13.498-18.618z"/><path d="M543.046 698.182a186.182 186.182 0 110-372.364 186.182 186.182 0 010 372.364zm0-325.818a139.636 139.636 0 100 279.272 139.636 139.636 0 000-279.272z"/></svg>