<svg class="icon" viewBox="0 0 1024 1024" xmlns="http://www.w3.org/2000/svg" width="200" height="200"><defs><style/></defs><path d="M887.467 192.853H786.773v-73.386c0-10.24-6.826-17.067-17.066-17.067s-17.067 6.827-17.067 17.067v73.386H303.787v-73.386c0-10.24-6.827-17.067-17.067-17.067s-17.067 6.827-17.067 17.067v73.386H168.96c-46.08 0-85.333 37.547-85.333 85.334v558.08c0 46.08 37.546 85.333 85.333 85.333h718.507c46.08 0 85.333-37.547 85.333-85.333v-558.08c0-47.787-37.547-85.334-85.333-85.334zM168.96 226.987h100.693v66.56c0 10.24 6.827 17.066 17.067 17.066s17.067-6.826 17.067-17.066v-66.56h450.56v66.56c0 10.24 6.826 17.066 17.066 17.066s17.067-6.826 17.067-17.066v-66.56h98.987c27.306 0 51.2 22.186 51.2 51.2v88.746H117.76v-88.746c0-29.014 22.187-51.2 51.2-51.2zm718.507 660.48H168.96c-27.307 0-51.2-22.187-51.2-51.2v-435.2h820.907v435.2c0 27.306-22.187 51.2-51.2 51.2z"/><path d="M858.453 493.227H327.68c-10.24 0-17.067 6.826-17.067 17.066V624.64H194.56c-10.24 0-17.067 6.827-17.067 17.067v133.12c0 10.24 6.827 17.066 17.067 17.066H460.8c10.24 0 17.067-6.826 17.067-17.066V660.48h380.586c10.24 0 17.067-6.827 17.067-17.067v-133.12c0-10.24-6.827-17.066-17.067-17.066zM445.44 527.36v97.28h-98.987v-97.28h98.987zm-230.4 131.413h98.987v98.987H215.04v-98.987zm131.413 97.28v-97.28h98.987v97.28h-98.987zm133.12-228.693h97.28v98.987h-97.28V527.36zm131.414 0h98.986v98.987h-98.986V527.36zm230.4 97.28H742.4v-98.987h98.987v98.987z"/></svg>