<svg class="icon" viewBox="0 0 1024 1024" xmlns="http://www.w3.org/2000/svg" width="81" height="81"><defs><style/></defs><path d="M479.857 608.429h64.286c19.286 0 32.143-12.858 32.143-32.143s-12.857-32.143-32.143-32.143h-64.286c-19.286 0-32.143 12.857-32.143 32.143s12.857 32.143 32.143 32.143zm0 122.142h64.286c19.286 0 32.143-12.857 32.143-32.142s-12.857-32.143-32.143-32.143h-64.286c-19.286 0-32.143 12.857-32.143 32.143s12.857 32.142 32.143 32.142zM833.43 171.286H704.857v-32.143C704.857 119.857 692 107 672.714 107s-32.143 12.857-32.143 32.143v32.143H383.43v-32.143c0-19.286-12.858-32.143-32.143-32.143s-32.143 12.857-32.143 32.143v32.143H190.57C119.857 171.286 62 229.143 62 293.429v501.428C62 865.571 119.857 923.43 190.571 917H833.43C904.143 917 962 859.143 962 794.857V293.43c0-70.715-57.857-122.143-128.571-122.143zm64.285 623.571c0 32.143-32.143 64.286-64.285 64.286H190.57c-32.142 0-64.285-25.714-64.285-64.286V422h771.428v372.857zm0-437.143H126.286V293.43c0-32.143 32.143-64.286 64.285-64.286h128.572v32.143c0 19.285 12.857 32.143 32.143 32.143s32.143-12.858 32.143-32.143v-32.143H640.57v32.143c0 19.285 12.858 32.143 32.143 32.143s32.143-12.858 32.143-32.143v-32.143H833.43c32.142 0 64.285 25.714 64.285 64.286v64.285zM287 730.571h64.286c19.285 0 32.143-12.857 32.143-32.142s-12.858-32.143-32.143-32.143H287c-19.286 0-32.143 12.857-32.143 32.143S267.714 730.57 287 730.57zM672.714 608.43H737c19.286 0 32.143-12.858 32.143-32.143S756.286 544.143 737 544.143h-64.286c-19.285 0-32.143 12.857-32.143 32.143s12.858 32.143 32.143 32.143zm-385.714 0h64.286c19.285 0 32.143-12.858 32.143-32.143s-12.858-32.143-32.143-32.143H287c-19.286 0-32.143 12.857-32.143 32.143s12.857 32.143 32.143 32.143zM672.714 730.57H737c19.286 0 32.143-12.857 32.143-32.142S756.286 666.286 737 666.286h-64.286c-19.285 0-32.143 12.857-32.143 32.143s12.858 32.142 32.143 32.142z"/></svg>