<?xml version="1.0" standalone="no"?><!DOCTYPE svg PUBLIC "-//W3C//DTD SVG 1.1//EN" "http://www.w3.org/Graphics/SVG/1.1/DTD/svg11.dtd"><svg t="1569915748289" class="icon" viewBox="0 0 1024 1024" version="1.1" xmlns="http://www.w3.org/2000/svg" p-id="3062" xmlns:xlink="http://www.w3.org/1999/xlink" width="200" height="200"><defs><style type="text/css"></style></defs><path d="M768.35456 416a256 256 0 1 0-512 0 192 192 0 1 0 0 384v64a256 256 0 0 1-58.88-505.216 320.128 320.128 0 0 1 629.76 0A256.128 256.128 0 0 1 768.35456 864v-64a192 192 0 0 0 0-384z m-512 384h64v64H256.35456v-64z m448 0h64v64h-64v-64z" p-id="3063"></path><path d="M539.04256 845.248V512.192a32.448 32.448 0 0 0-32-32.192c-17.664 0-32 14.912-32 32.192v333.056l-36.096-36.096a32.192 32.192 0 0 0-45.056 0.192 31.616 31.616 0 0 0-0.192 45.056l90.88 90.944a31.36 31.36 0 0 0 22.528 9.088 30.08 30.08 0 0 0 22.4-9.088l90.88-90.88a32.192 32.192 0 0 0-0.192-45.12 31.616 31.616 0 0 0-45.056-0.192l-36.096 36.096z" p-id="3064"></path></svg>