<svg class="icon" viewBox="0 0 1024 1024" xmlns="http://www.w3.org/2000/svg" width="200" height="200"><defs><style/></defs><path d="M934.912 1016.832H192c-14.336 0-25.6-11.264-25.6-25.6v-189.44c0-14.336 11.264-25.6 25.6-25.6s25.6 11.264 25.6 25.6v163.84h691.712V64H217.6v148.48c0 14.336-11.264 25.6-25.6 25.6s-25.6-11.264-25.6-25.6V38.4c0-14.336 11.264-25.6 25.6-25.6h742.912c14.336 0 25.6 11.264 25.6 25.6v952.832c0 14.336-11.264 25.6-25.6 25.6z"/><path d="M232.96 371.2H115.2c-14.336 0-25.6-11.264-25.6-25.6s11.264-25.6 25.6-25.6h117.76c14.336 0 25.6 11.264 25.6 25.6s-11.264 25.6-25.6 25.6zm0 168.96H115.2c-14.336 0-25.6-11.264-25.6-25.6s11.264-25.6 25.6-25.6h117.76c14.336 0 25.6 11.264 25.6 25.6s-11.264 25.6-25.6 25.6zm0 158.72H115.2c-14.336 0-25.6-11.264-25.6-25.6s11.264-25.6 25.6-25.6h117.76c14.336 0 25.6 11.264 25.6 25.6s-11.264 25.6-25.6 25.6zm341.504 64c-134.144 0-243.2-109.056-243.2-243.2s109.056-243.2 243.2-243.2 243.2 109.056 243.2 243.2-109.056 243.2-243.2 243.2zm0-435.2c-105.984 0-192 86.016-192 192s86.016 192 192 192 192-86.016 192-192-86.016-192-192-192z"/><path d="M663.04 545.28H576c-14.336 0-25.6-11.264-25.6-25.6s11.264-25.6 25.6-25.6h87.04c14.336 0 25.6 11.264 25.6 25.6s-11.264 25.6-25.6 25.6z"/><path d="M576 545.28c-14.336 0-25.6-11.264-25.6-25.6v-87.04c0-14.336 11.264-25.6 25.6-25.6s25.6 11.264 25.6 25.6v87.04c0 14.336-11.264 25.6-25.6 25.6z"/></svg>