<svg class="icon" viewBox="0 0 1024 1024" xmlns="http://www.w3.org/2000/svg" width="200" height="200"><defs><style/></defs><path d="M208.736 566.336H64.384v59.328h144.352v-59.328zm0-336.096H165.44V74.592c0-7.968 4.896-14.848 10.464-14.848H677.92V.448H175.936c-38.72 1.248-69.248 34.368-68.192 74.144V230.24h-43.36v59.36h144.352v-59.36zm0 168.096H64.384v59.328h144.352v-59.328zm714.656 76.576h-57.76v474.496c0 7.936-4.896 14.848-10.464 14.848H175.936c-5.568 0-10.464-6.912-10.464-14.848v-155.68h43.296v-59.296H64.384v59.296h43.328v155.68c-1.024 39.776 29.472 72.896 68.192 74.144h679.232c38.72-1.184 69.248-34.368 68.256-74.144V474.912zm14.944-290.336l-83.072-85.312a71.264 71.264 0 00-52.544-21.728 71.52 71.52 0 00-51.616 23.872L386.528 507.264a30.496 30.496 0 00-6.176 10.72L308.16 740.512a30.016 30.016 0 006.976 30.24c7.712 7.968 19.2 10.752 29.568 7.2l216.544-74.112a28.736 28.736 0 0012.128-7.936l367.072-408.448a75.552 75.552 0 00-2.112-102.88zm-557.12 518.272l39.104-120.64 78.336 80.416-117.44 40.224zm170.048-70.016L447.712 526.816l200.16-222.4 103.52 106.304-200.128 222.112zm346.688-385.76l-.256.224L790.56 366.464 687.04 259.936l106.432-118.624a14.144 14.144 0 0110.304-4.736 13.44 13.44 0 0110.464 4.288l83.264 85.696c5.472 5.6 5.664 14.72.448 20.512z"/></svg>