<svg class="icon" viewBox="0 0 1024 1024" xmlns="http://www.w3.org/2000/svg" width="200" height="200"><defs><style/></defs><path d="M896 128h-85.333a42.667 42.667 0 000 85.333h42.666v640H170.667v-640h42.666a42.667 42.667 0 000-85.333H128a42.667 42.667 0 00-42.667 42.667V896A42.667 42.667 0 00128 938.667h768A42.667 42.667 0 00938.667 896V170.667A42.667 42.667 0 00896 128z"/><path d="M341.333 298.667A42.667 42.667 0 00384 256V128a42.667 42.667 0 00-85.333 0v128a42.667 42.667 0 0042.666 42.667zm170.667 0A42.667 42.667 0 00554.667 256V128a42.667 42.667 0 00-85.334 0v128A42.667 42.667 0 00512 298.667zm170.667 0A42.667 42.667 0 00725.333 256V128A42.667 42.667 0 00640 128v128a42.667 42.667 0 0042.667 42.667zM341.333 768A42.667 42.667 0 00384 725.333a128 128 0 01256 0 42.667 42.667 0 0085.333 0 213.333 213.333 0 00-107.52-184.32A128 128 0 00640 469.333a128 128 0 00-256 0 128 128 0 0022.187 71.68 213.333 213.333 0 00-107.52 184.32A42.667 42.667 0 00341.333 768zm128-298.667A42.667 42.667 0 11512 512a42.667 42.667 0 01-42.667-42.667z"/></svg>