<?xml version="1.0" standalone="no"?><!DOCTYPE svg PUBLIC "-//W3C//DTD SVG 1.1//EN" "http://www.w3.org/Graphics/SVG/1.1/DTD/svg11.dtd"><svg t="1668244964043" class="icon" viewBox="0 0 1024 1024" version="1.1" xmlns="http://www.w3.org/2000/svg" p-id="3750" xmlns:xlink="http://www.w3.org/1999/xlink" width="64" height="64"><path d="M451.673935 994.395699C478.883834 1025.019147 524.254807 1024.808979 551.400292 993.928851 553.755808 991.387908 558.821323 985.796762 565.872444 977.84835 577.572838 964.659017 590.597131 949.62432 604.615947 932.998315 644.662065 885.504506 684.708678 834.717818 722.129538 782.646447 759.658524 730.424619 792.492213 679.709274 819.314991 631.458462 868.685946 542.646317 896 465.543426 896 402.285715 896 180.109449 719.301715 0 501.333333 0 283.364952 0 106.666667 180.109449 106.666667 402.285715 106.666667 465.598716 134.05152 542.80573 183.54613 631.762622 210.371803 679.976529 243.193308 730.651876 280.699364 782.833154 318.155192 834.94455 358.239268 885.77421 398.322835 933.311031 412.354743 949.952073 425.391185 965.00073 437.102468 978.202579 444.160087 986.158466 449.230214 991.754921 451.982775 994.736706L451.673935 994.395699ZM486.822684 961.321348C484.281231 958.568254 479.425084 953.207989 472.585916 945.498359 461.135889 932.591017 448.364015 917.847761 434.602351 901.527215 395.275714 854.888073 355.949587 805.019548 319.289224 754.014863 282.808749 703.260452 250.983685 654.123578 225.158316 607.707522 179.388826 525.445805 154.50505 455.290161 154.50505 402.285715 154.50505 207.039905 309.785362 48.761905 501.333333 48.761905 692.881306 48.761905 848.161617 207.039905 848.161617 402.285715 848.161617 455.246022 823.345286 525.298263 777.693969 607.419251 751.873483 653.867066 720.038415 703.039925 683.537446 753.831262 646.912604 804.794967 607.624538 854.619674 568.335977 901.215038 554.587654 917.520243 541.828177 932.24925 530.389289 945.143797 523.556841 952.845711 518.705521 958.200435 516.166694 960.950526 507.543772 970.748911 495.255793 970.80583 487.131524 961.662353L486.822684 961.321348Z" p-id="3751"></path><path d="M714.955981 467.028806C723.919106 442.627955 728.565658 416.668998 728.565658 390.095238 728.565658 268.908183 632.184774 170.666667 513.29293 170.666667 394.401086 170.666667 298.020202 268.908183 298.020202 390.095238 298.020202 511.282291 394.401086 609.52381 513.29293 609.52381 549.003859 609.52381 583.510052 600.631947 614.373097 583.874409 626.032316 577.543868 630.449257 562.77782 624.238611 550.893519 618.027966 539.009218 603.541579 534.507006 591.882359 540.837549 567.900883 553.858639 541.111735 560.761905 513.29293 560.761905 420.821495 560.761905 345.858586 484.351836 345.858586 390.095238 345.858586 295.838641 420.821495 219.428572 513.29293 219.428572 605.764365 219.428572 680.727273 295.838641 680.727273 390.095238 680.727273 410.807981 677.117041 430.977316 670.154965 449.930592 665.522846 462.540883 671.796821 476.591108 684.168282 481.312651 696.53974 486.034191 710.323861 479.639095 714.955981 467.028806L714.955981 467.028806Z" p-id="3752"></path></svg>