<svg class="icon" viewBox="0 0 1184 1024" xmlns="http://www.w3.org/2000/svg" width="231.25" height="200"><defs><style/></defs><path d="M1005.634 616.006c-5.312-.48-10.431-1.28-15.519-2.144a60.615 60.615 0 01-3.36-.48c-2.4-.415-4.671-1.055-7.007-1.631-9.95-2.144-19.678-4.832-28.99-8.352v133.236H219.404V603.399c-9.375 3.552-19.006 6.304-29.053 8.512-2.336.416-4.607 1.056-6.943 1.535-1.088.192-2.176.32-3.36.512-5.12.768-10.27 1.536-15.518 2.08-5.984.48-12.095.864-18.27.864-12.48 0-24.702-1.216-36.541-3.328v357.311c0 29.31 24.573 53.115 54.875 53.115h841.073c30.237 0 54.81-23.774 54.81-53.115V613.542c-11.838 2.144-24.061 3.328-36.54 3.328-6.08 0-12.255-.352-18.238-.864z"/><path d="M182.83 109.75h804.501c30.302 0 54.875-24.574 54.875-54.875S1017.633 0 987.331 0h-804.5c-30.301 0-54.875 24.574-54.875 54.875.032 30.301 24.606 54.875 54.875 54.875z"/><path d="M1067.388 164.593h-964.55L0 420.6c0 80.728 65.53 146.258 146.258 146.258s146.259-65.53 146.259-146.258c0 80.728 65.53 146.258 146.258 146.258s146.258-65.53 146.258-146.258c0 80.728 65.53 146.258 146.258 146.258S877.55 501.329 877.55 420.6c0 80.728 65.53 146.258 146.258 146.258s146.258-65.53 146.258-146.258L1067.26 164.593z"/></svg>