<?xml version="1.0" standalone="no"?><!DOCTYPE svg PUBLIC "-//W3C//DTD SVG 1.1//EN" "http://www.w3.org/Graphics/SVG/1.1/DTD/svg11.dtd"><svg t="1635907181185" class="icon" viewBox="0 0 1184 1024" version="1.1" xmlns="http://www.w3.org/2000/svg" p-id="3259" xmlns:xlink="http://www.w3.org/1999/xlink" width="231.25" height="200"><defs><style type="text/css"></style></defs><path d="M1005.633722 616.006249c-5.311502-0.479955-10.431022-1.27988-15.518545-2.143799-1.087898-0.127988-2.271787-0.287973-3.359685-0.479955-2.399775-0.415961-4.671562-1.055901-7.007343-1.631847-9.951067-2.143799-19.678155-4.831547-28.989282-8.351217l0 133.235509-731.355435 0 0-133.235509c-9.375121 3.551667-19.006218 6.303409-29.053276 8.511202-2.335781 0.415961-4.607568 1.055901-6.943349 1.535856-1.087898 0.191982-2.175796 0.31997-3.359685 0.511952-5.11952 0.767928-10.271037 1.535856-15.518545 2.079805-5.983439 0.479955-12.094866 0.863919-18.270287 0.863919-12.47883 0-24.701684-1.215886-36.540574-3.327688l0 357.310502c0 29.309252 24.573696 53.11502 54.874855 53.11502l841.073149 0c30.237165 0 54.810861-23.773771 54.810861-53.11502l0-357.342499c-11.83889 2.143799-24.061744 3.327688-36.540574 3.327688-6.07943 0-12.254851-0.351967-18.23829-0.863919z" p-id="3260"></path><path d="M182.83086 109.749711l804.500578 0c30.301159 0 54.874855-24.573696 54.874855-54.874855s-24.573696-54.874855-54.874855-54.874855l-804.500578 0c-30.301159 0-54.874855 24.573696-54.874855 54.874855 0.031997 30.301159 24.605693 54.874855 54.874855 54.874855z" p-id="3261"></path><path d="M1067.387932 164.592569l-964.549573 0-102.838359 256.007999c0 80.728432 65.529857 146.258288 146.258288 146.258288s146.258288-65.529857 146.258288-146.258288c0 80.728432 65.529857 146.258288 146.258288 146.258288s146.258288-65.529857 146.258288-146.258288c0 80.728432 65.529857 146.258288 146.258288 146.258288s146.258288-65.529857 146.258288-146.258288c0 80.728432 65.529857 146.258288 146.258288 146.258288s146.258288-65.529857 146.258288-146.258288l-102.806362-256.007999z" p-id="3262"></path></svg>