<svg class="icon" viewBox="0 0 1024 1024" xmlns="http://www.w3.org/2000/svg" width="200" height="200"><defs><style/></defs><path d="M279.273 791.273h512a46.545 46.545 0 010 93.09h-512a46.545 46.545 0 010-93.09zm33.838-617.984v478.347H193.722V395.171c0-37.004-.884-59.299-2.653-66.746a24.948 24.948 0 00-14.615-16.99c-8.006-3.863-25.786-5.771-53.341-5.771H111.29v-55.855c57.717-12.38 101.562-37.888 131.491-76.52h70.284zm303.71 396.8v81.547H354.163v-68.235c77.778-127.256 124.044-206.01 138.706-236.218 14.662-30.255 22.016-53.854 22.016-70.75 0-13.032-2.234-22.714-6.656-29.137-4.422-6.377-11.171-9.588-20.247-9.588a22.249 22.249 0 00-20.201 10.612c-4.469 7.121-6.656 21.178-6.656 42.263v45.522H354.164V318.65c0-26.763 1.397-47.942 4.143-63.348 2.746-15.5 9.542-30.72 20.387-45.661 10.798-14.988 24.902-26.298 42.217-33.978 17.361-7.68 38.167-11.544 62.37-11.544 47.477 0 83.317 11.776 107.707 35.328 24.296 23.552 36.445 53.341 36.445 89.368 0 27.368-6.842 56.32-20.48 86.853-13.731 30.534-54.04 95.325-121.018 194.42H616.82zm270.615-189.394c18.152 6.098 31.65 16.105 40.494 29.976 8.844 13.917 13.312 46.452 13.312 97.652 0 38.028-4.329 67.49-13.033 88.53-8.657 20.945-23.598 36.91-44.87 47.848-21.27 10.938-48.593 16.384-81.873 16.384-37.795 0-67.49-6.33-89.088-19.084-21.55-12.66-35.747-28.253-42.542-46.638-6.796-18.432-10.194-50.362-10.194-95.884v-37.841h119.39v77.73c0 20.667 1.21 33.84 3.723 39.425 2.42 5.585 7.913 8.424 16.337 8.424 9.31 0 15.36-3.537 18.34-10.612 2.932-7.121 4.421-25.6 4.421-55.575v-33.047c0-18.34-2.048-31.744-6.19-40.216a30.72 30.72 0 00-18.34-16.71c-8.052-2.653-23.738-4.189-46.964-4.561V357.05c28.393 0 45.894-1.07 52.597-3.258a22.947 22.947 0 0014.475-14.15c2.933-7.307 4.422-18.711 4.422-34.257V278.76c0-16.757-1.722-27.741-5.12-33.048-3.49-5.352-8.844-8.005-16.151-8.005-8.285 0-13.964 2.792-16.99 8.378-3.025 5.632-4.56 17.64-4.56 35.933v39.284h-119.39V280.53c0-45.66 10.473-76.567 31.325-92.625 20.9-16.058 54.086-24.064 99.608-24.064 56.878 0 95.51 11.17 115.805 33.373 20.293 22.249 30.394 53.202 30.394 92.765 0 26.81-3.63 46.173-10.892 58.089-7.307 11.916-20.107 22.807-38.446 32.628z"/></svg>