<svg class="icon" viewBox="0 0 1024 1024" xmlns="http://www.w3.org/2000/svg" width="200" height="200"><defs><style/></defs><path d="M356.246 681.563C288.09 639.613 249 577.722 249 511.757c0-65.966 39.09-127.86 107.246-169.809 12.047-7.415 15.801-23.19 8.386-35.237-7.414-12.046-23.191-15.801-35.236-8.387-39.641 24.4-72.54 56.045-95.138 91.516-23.867 37.46-36.482 79.62-36.482 121.917 0 42.298 12.615 84.455 36.482 121.915 22.599 35.47 55.497 67.115 95.138 91.513a25.489 25.489 0 0013.4 3.805c8.599 0 16.998-4.33 21.836-12.19 7.415-12.048 3.66-27.823-8.386-35.237zm-92.302 73.018C171.34 693.469 118.23 604.957 118.23 511.74c0-93.196 53.094-181.684 145.668-242.775 11.806-7.79 15.06-23.677 7.27-35.483-7.791-11.806-23.678-15.062-35.484-7.27C128.488 296.954 67.007 401.024 67.007 511.74c0 110.737 61.496 214.83 168.721 285.594a25.487 25.487 0 0014.083 4.238c8.317 0 16.476-4.046 21.4-11.507 7.793-11.807 4.538-27.693-7.267-35.484zM788.66 226.213c-11.805-7.791-27.693-4.536-35.484 7.27-7.79 11.806-4.536 27.692 7.27 35.483 92.575 61.092 145.67 149.58 145.67 242.774 0 93.216-53.111 181.728-145.715 242.84-11.806 7.791-15.06 23.68-7.27 35.485 4.926 7.462 13.082 11.507 21.4 11.507 4.842 0 9.74-1.371 14.085-4.238C895.844 726.572 957.34 622.476 957.34 511.74c0-110.714-61.48-214.785-168.68-285.527zm1.43 407.46c23.865-37.46 36.48-79.618 36.48-121.916s-12.615-84.456-36.48-121.917c-22.6-35.471-55.498-67.116-95.14-91.516-12.048-7.413-27.822-3.659-35.237 8.387-7.415 12.046-3.66 27.822 8.386 35.237 68.156 41.95 107.247 103.842 107.247 169.81 0 65.964-39.09 127.855-107.247 169.804-12.046 7.415-15.801 23.19-8.386 35.237 4.838 7.861 13.236 12.191 21.835 12.191 4.58 0 9.216-1.228 13.4-3.805 39.642-24.398 72.541-56.042 95.141-91.513zM567.128 518.274c24.124-17.15 39.888-45.306 39.888-77.071 0-52.129-42.453-94.539-94.635-94.539-52.18 0-94.633 42.41-94.633 94.539 0 31.695 15.696 59.798 39.73 76.958-49.875 21.129-84.916 70.235-84.916 127.302 0 2.367.061 4.762.182 7.119l1.25 24.296h276.373l1.238-24.308c.12-2.36.181-4.75.181-7.107 0-56.967-34.921-105.998-84.658-127.19zm-54.748-120.386c23.937 0 43.412 19.43 43.412 43.315 0 23.883-19.475 43.313-43.412 43.313-23.936 0-43.41-19.43-43.41-43.313 0-23.883 19.474-43.315 43.41-43.315zM426.09 625.657c9.12-38.543 44.255-67.338 86.085-67.338s76.967 28.795 86.086 67.338H426.09z"/></svg>