<?xml version="1.0" standalone="no"?><!DOCTYPE svg PUBLIC "-//W3C//DTD SVG 1.1//EN" "http://www.w3.org/Graphics/SVG/1.1/DTD/svg11.dtd"><svg t="1638429990011" class="icon" viewBox="0 0 1024 1024" version="1.1" xmlns="http://www.w3.org/2000/svg" p-id="1233" xmlns:xlink="http://www.w3.org/1999/xlink" width="200" height="200"><defs><style type="text/css"></style></defs><path d="M459.954135 607.201246l233.733369 0c14.352893 0 25.941835-11.088546 25.941835-24.798802 0-13.623275-11.587919-24.710798-25.941835-24.710798l-233.733369 0c-14.352893 0-25.986861 11.087523-25.986861 24.710798C433.967274 596.1127 445.601242 607.201246 459.954135 607.201246zM382.017088 824.38673l287.564391-0.272199 0-0.633427c9.370415-1.494027 16.660448-9.233292 16.660448-19.053961 0-9.773598-7.290033-17.693987-16.660448-19.23304l0-0.633427L369.500007 784.560676c-27.275203 0-51.949162-38.46915-51.949162-65.214281l0-415.585113c0.181125-1.041726 0.633427-1.992377 0.633427-3.123131 0-10.997472-8.985652-20.00359-20.032242-20.00359-11.023054 0-20.010753 9.007141-20.010753 20.00359l0 418.708244C278.1423 773.383102 327.080895 824.38673 382.017088 824.38673zM693.687504 89.925079c-3.235694 0-311.669392-0.814552-311.669392-0.814552-51.2922 0-96.314603 39.10053-102.108562 88.294952-0.181125 1.085728-0.656963 2.036379-0.656963 3.168156 0 0.091074 0.023536 0.135076 0.023536 0.181125 0 0.046049-0.023536 0.090051-0.023536 0.181125l0.067538 0c0.181125 10.860349 9.031701 19.685341 19.942191 19.685341 10.933003 0 19.762089-8.824993 19.964704-19.685341l0.226151 0c6.043646-24.664749 27.027563-52.04433 50.04786-52.04433l284.755416 0c-0.406253 60.461023 0 118.435413 0 118.435413 0 54.531987 35.991726 91.642187 91.358731 91.642187 0 0 40.133046 0 90.428545 0l0 380.37724c0.338714 44.261063-33.70259 65.757656-62.180178 65.214281l0 0.272199c-10.229992 0.723477-18.425651 9.188266-18.425651 19.594267 0 10.454096 8.195659 18.736736 18.425651 19.417235l0 0.271176c0.248663 0 0.49835-0.091074 0.74599-0.091074 0.184195 0 0.340761 0.091074 0.522909 0.091074 0.971118 0 1.811252-0.407276 2.739391-0.544399 52.287877-3.755534 97.580432-52.314483 97.580432-104.22476L875.452267 299.777551 693.687504 89.925079zM745.615177 299.777551c-27.684526 0-51.927673-51.411927-51.927673-78.69941 0 0 0-27.606755 0-78.656431l0-0.045025 129.839137 157.400866L745.615177 299.777551zM459.954135 483.471246l233.733369 0c14.352893 0 25.941835-11.041474 25.941835-24.708751 0-13.667278-11.587919-24.7548-25.941835-24.7548l-233.733369 0c-14.352893 0-25.986861 11.087523-25.986861 24.7548C433.967274 472.430796 445.601242 483.471246 459.954135 483.471246zM716.709847 841.356216c-8.53335 0-15.32708 6.246261-17.113773 14.256702l-0.475837-0.045025c-21.73093 44.171012-40.426735 34.032094-62.294788 34.032094L252.179998 889.599987c-27.27725 0-64.466244-38.512129-64.466244-65.213257L187.713754 322.314847c0-24.800849 29.857005-58.606793 55.954383-63.403029l0-0.543376c10.571776-0.543376 19.082614-9.142218 19.082614-19.86749 0-10.68127-8.510838-19.279089-19.082614-19.777439l0-0.226151c-0.181125 0.044002-0.339738 0.091074-0.51984 0.091074-0.158612 0-0.272199-0.091074-0.429789-0.091074-1.245364 0-2.353604 0.497327-3.553942 0.724501-50.703799 5.203512-90.860381 52.134381-90.860381 103.092983l0 502.07086c0 54.034661 48.938596 105.038288 103.875812 105.038288l389.558343 0c47.104831 0 78.254272-17.198707 90.542132-61.683874 1.358951-2.533706 2.330068-5.250584 2.330068-8.326643C734.611565 849.546759 726.601124 841.356216 716.709847 841.356216z" p-id="1234"></path></svg>