<svg class="icon" viewBox="0 0 1024 1024" xmlns="http://www.w3.org/2000/svg" width="200" height="200"><defs><style/></defs><path d="M512 0C230.4 0 0 230.4 0 512s230.4 512 512 512 512-230.4 512-512S793.6 0 512 0zm0 921.6c-225.28 0-409.6-184.32-409.6-409.6S286.72 102.4 512 102.4 921.6 286.72 921.6 512 737.28 921.6 512 921.6z"/><path d="M665.6 537.6H563.2v-51.2h102.4c25.6 0 51.2-25.6 51.2-51.2S691.2 384 665.6 384h-30.72l20.48-20.48c20.48-20.48 20.48-51.2 0-71.68s-51.2-20.48-71.68 0L512 363.52l-71.68-66.56c-20.48-20.48-51.2-20.48-71.68 0s-20.48 51.2 0 71.68l20.48 20.48H358.4c-25.6 0-51.2 25.6-51.2 51.2s25.6 51.2 51.2 51.2h102.4v51.2H358.4c-25.6 0-51.2 25.6-51.2 51.2s25.6 51.2 51.2 51.2h102.4v56.32c0 25.6 20.48 46.08 46.08 46.08h10.24c25.6 0 46.08-20.48 46.08-46.08v-56.32h102.4c25.6 0 51.2-25.6 51.2-51.2s-25.6-56.32-51.2-56.32z"/></svg>