<?xml version="1.0" standalone="no"?><!DOCTYPE svg PUBLIC "-//W3C//DTD SVG 1.1//EN" "http://www.w3.org/Graphics/SVG/1.1/DTD/svg11.dtd"><svg t="1635906769564" class="icon" viewBox="0 0 1024 1024" version="1.1" xmlns="http://www.w3.org/2000/svg" p-id="2420" xmlns:xlink="http://www.w3.org/1999/xlink" width="200" height="200"><defs><style type="text/css"></style></defs><path d="M512 0C230.4 0 0 230.4 0 512s230.4 512 512 512 512-230.4 512-512S793.6 0 512 0z m0 921.6c-225.28 0-409.6-184.32-409.6-409.6s184.32-409.6 409.6-409.6 409.6 184.32 409.6 409.6-184.32 409.6-409.6 409.6z" p-id="2421"></path><path d="M665.6 537.6h-102.4v-51.2h102.4c25.6 0 51.2-25.6 51.2-51.2s-25.6-51.2-51.2-51.2h-30.72l20.48-20.48c20.48-20.48 20.48-51.2 0-71.68s-51.2-20.48-71.68 0L512 363.52 440.32 296.96c-20.48-20.48-51.2-20.48-71.68 0s-20.48 51.2 0 71.68l20.48 20.48H358.4c-25.6 0-51.2 25.6-51.2 51.2s25.6 51.2 51.2 51.2h102.4v51.2H358.4c-25.6 0-51.2 25.6-51.2 51.2s25.6 51.2 51.2 51.2h102.4v56.32c0 25.6 20.48 46.08 46.08 46.08h10.24c25.6 0 46.08-20.48 46.08-46.08v-56.32h102.4c25.6 0 51.2-25.6 51.2-51.2s-25.6-56.32-51.2-56.32z" p-id="2422"></path></svg>