<?xml version="1.0" standalone="no"?><!DOCTYPE svg PUBLIC "-//W3C//DTD SVG 1.1//EN" "http://www.w3.org/Graphics/SVG/1.1/DTD/svg11.dtd"><svg t="1636341153732" class="icon" viewBox="0 0 1024 1024" version="1.1" xmlns="http://www.w3.org/2000/svg" p-id="2282" xmlns:xlink="http://www.w3.org/1999/xlink" width="200" height="200"><defs><style type="text/css"></style></defs><path d="M294.912 874.666667a21.333333 21.333333 0 0 1-17.194667-33.962667l469.333334-640a21.333333 21.333333 0 0 1 34.432 25.258667l-469.333334 640a21.248 21.248 0 0 1-17.237333 8.704zM358.912 533.333333a161.28 161.28 0 0 1-149.333333-170.666666 161.28 161.28 0 0 1 149.333333-170.666667 161.28 161.28 0 0 1 149.333333 170.666667 161.28 161.28 0 0 1-149.333333 170.666666z m0-298.666666a118.912 118.912 0 0 0-106.666667 128 118.912 118.912 0 0 0 106.666667 128 118.912 118.912 0 0 0 106.666667-128 118.912 118.912 0 0 0-106.666667-128zM700.245333 874.666667a161.28 161.28 0 0 1-149.333333-170.666667 161.28 161.28 0 0 1 149.333333-170.666667 161.28 161.28 0 0 1 149.333334 170.666667 161.28 161.28 0 0 1-149.333334 170.666667z m0-298.666667a118.912 118.912 0 0 0-106.666666 128 118.912 118.912 0 0 0 106.666666 128 118.912 118.912 0 0 0 106.666667-128 118.912 118.912 0 0 0-106.666667-128z" fill="#757575" p-id="2283"></path></svg>