<svg class="icon" viewBox="0 0 1024 1024" xmlns="http://www.w3.org/2000/svg" width="200" height="200"><defs><style/></defs><path d="M294.912 874.667a21.333 21.333 0 01-17.195-33.963l469.334-640a21.333 21.333 0 0134.432 25.259l-469.334 640a21.248 21.248 0 01-17.237 8.704zm64-341.334a161.28 161.28 0 01-149.333-170.666A161.28 161.28 0 01358.912 192a161.28 161.28 0 01149.333 170.667 161.28 161.28 0 01-149.333 170.666zm0-298.666a118.912 118.912 0 00-106.667 128 118.912 118.912 0 00106.667 128 118.912 118.912 0 00106.667-128 118.912 118.912 0 00-106.667-128zm341.333 640A161.28 161.28 0 01550.912 704a161.28 161.28 0 01149.333-170.667A161.28 161.28 0 01849.58 704a161.28 161.28 0 01-149.334 170.667zm0-298.667A118.912 118.912 0 00593.58 704a118.912 118.912 0 00106.666 128 118.912 118.912 0 00106.667-128 118.912 118.912 0 00-106.667-128z" fill="#757575"/></svg>