<svg class="icon" viewBox="0 0 1024 1024" xmlns="http://www.w3.org/2000/svg" width="200" height="200"><defs><style/></defs><path d="M761.503 2.906H242.122c-32.405 0-58.932 26.06-58.932 58.528v902.302c0 32.157 26.217 58.217 58.932 58.217h519.381c32.345 0 58.591-26.06 58.591-58.217V61.123c0-32.156-26.246-58.217-58.591-58.217M452.879 61.123h98.147c6.78 0 12.316 5.536 12.316 12.253 0 6.749-5.535 12.253-12.316 12.253H452.88c-6.78 0-12.345-5.504-12.345-12.253-.001-6.717 5.566-12.253 12.345-12.253m48.763 919.47c-29.637 0-53.988-23.946-53.988-53.677 0-29.357 24.04-53.614 53.988-53.614 29.917 0 53.987 23.884 53.987 53.614 0 29.731-24.069 53.677-53.987 53.677m264.715-177.45c0 16.234-13.187 29.108-29.234 29.108H266.504c-16.357 0-29.326-13.186-29.326-29.108V163.5c0-16.233 13.28-29.139 29.326-29.139H736.75c16.421 0 29.358 13.185 29.358 29.139v639.642h.249zm0 0"/></svg>