<svg class="icon" viewBox="0 0 1024 1024" xmlns="http://www.w3.org/2000/svg" width="200" height="200"><defs><style/></defs><path d="M136.4 434.3h77.7c21.5 0 38.9-17.4 38.9-38.9s-17.4-38.9-38.9-38.9h-77.7c-21.5 0-38.9 17.4-38.9 38.9s17.4 38.9 38.9 38.9zm116.5 194.3c0-21.5-17.4-38.9-38.9-38.9h-77.7c-21.5 0-38.9 17.4-38.9 38.9s17.4 38.9 38.9 38.9H214c21.5-.1 38.9-17.5 38.9-38.9z"/><path d="M874.7 97.5H227c-28.6 0-51.8 23.2-51.8 51.8v194.3h38.9c28.6 0 51.8 23.2 51.8 51.8 0 28.6-23.2 51.8-51.8 51.8h-38.9v129.5h38.9c28.6 0 51.8 23.2 51.8 51.8 0 28.6-23.2 51.8-51.8 51.8h-38.9v194.3c0 28.6 23.2 51.8 51.8 51.8h647.7c28.6 0 51.8-23.2 51.8-51.8V149.3c0-28.6-23.2-51.8-51.8-51.8zm-311.3 723c-15.6 0-146.7-71.6-146.7-91 0-19.4 102-368.6 102-368.6l-83.6-104s-12.3-23.1 24.6-23.1h208.9c36.9 0 18.4 23.1 18.4 23.1l-79 104s102 351.3 102 368.6c.1 17.3-131 91-146.6 91zm169.2-253.6l-27.9 40.2-74.5-240 103.4 171.7c4.6 7.9 4.2 20.6-1 28.1z"/></svg>