<svg class="icon" viewBox="0 0 1024 1024" xmlns="http://www.w3.org/2000/svg" width="200" height="200"><defs><style/></defs><path d="M512 0C229.234 0 0 229.234 0 512s229.234 512 512 512 512-229.234 512-512A512 512 0 00512 0zm0 938.667C276.366 938.667 85.333 747.634 85.333 512S276.366 85.333 512 85.333 938.667 276.366 938.667 512A426.667 426.667 0 01512 938.667zm0-717.654A170.667 170.667 0 00341.333 391.68a42.667 42.667 0 0085.334 0A85.333 85.333 0 11512 477.013a42.667 42.667 0 00-42.667 42.667v111.36a42.667 42.667 0 0085.334 0V556.8A170.667 170.667 0 00512 221.013zm-42.667 542.294a42.667 42.667 0 1085.334 0 42.667 42.667 0 00-85.334 0z"/></svg>