<svg class="icon" viewBox="0 0 1024 1024" xmlns="http://www.w3.org/2000/svg" width="81" height="81"><defs><style/></defs><path d="M507.393 71.849c241.536 0 437.398 195.854 437.398 437.374 0 241.538-195.862 437.39-437.398 437.39-241.5 0-437.35-195.852-437.35-437.39 0-241.52 195.849-437.374 437.35-437.374zm0 210.97c-125.006 0-226.37 101.39-226.37 226.418 0 125.013 101.364 226.397 226.37 226.397 125.043 0 226.424-101.384 226.424-226.397 0-125.029-101.38-226.418-226.424-226.418zm0-162.037c-214.466 0-388.42 173.951-388.42 388.44 0 214.512 173.955 388.461 388.42 388.461 214.524 0 388.46-173.948 388.46-388.461 0-214.489-173.936-388.44-388.46-388.44z"/></svg>