<svg class="icon" viewBox="0 0 1069 1024" xmlns="http://www.w3.org/2000/svg" width="84.56" height="81"><defs><style/></defs><path d="M633.73 378.02l9.498 18.688 20.78 2.798 206.616 27.332a11.465 11.465 0 016.61 19.473L729.966 593.665l-14.893 14.893 3.8 20.683 37.847 204.89a11.465 11.465 0 01-16.481 12.296l-185.55-94.58-18.687-9.493-18.487 9.992-183.24 99.35a11.465 11.465 0 01-16.784-11.867l32.543-205.796 3.297-20.786-15.192-14.492-151.033-143.484a11.465 11.465 0 016.1-19.64L399 402.998l20.786-3.296 9.092-18.98 89.713-188.078a11.465 11.465 0 0120.569-.263l94.568 185.635zM496.647 85.52L374.89 340.501l-279.126 44.26a34.395 34.395 0 00-18.303 58.908l204.873 194.663-44.169 279.115a34.395 34.395 0 0050.366 35.616l248.4-134.679L788.776 946.66a34.395 34.395 0 0049.437-36.894l-51.306-277.854 199.731-199.909a34.395 34.395 0 00-19.828-58.408l-280.118-37.032L558.33 84.713a34.395 34.395 0 00-61.682.802z"/></svg>