<svg class="icon" viewBox="0 0 1024 1024" xmlns="http://www.w3.org/2000/svg" width="200" height="200"><defs><style/></defs><path d="M62 511.98C62 263.866 263.907 62 511.98 62s449.98 201.825 449.98 449.98c0 248.195-201.908 449.98-449.98 449.98C263.907 962 62 760.174 62 511.98m839.986 0c0-215.244-175.009-390.416-390.006-390.416-215.04 0-389.966 175.172-389.966 390.416 0 215.284 175.009 390.456 389.966 390.456 215.038.041 390.006-175.131 390.006-390.456m-637.813-81.696c0-5.768 2.127-11.516 6.647-15.873 8.714-8.754 22.89-8.754 31.725 0L511.98 622.64l209.475-208.105c8.754-8.714 22.97-8.714 31.909 0 8.713 8.755 8.713 22.889 0 31.602L511.98 685.741 270.718 446.014c-4.438-4.234-6.545-9.962-6.545-15.73"/></svg>