<svg class="icon" viewBox="0 0 1024 1024" xmlns="http://www.w3.org/2000/svg" width="200" height="200"><defs><style/></defs><path d="M64 223.995h168.001v47.998c0 26.429 18.879 47.998 41.984 47.998h140.037c23.096 0 41.984-21.57 41.984-47.998v-47.998h504.003a32.005 32.005 0 000-64.009H455.997v-47.998c0-26.428-18.88-47.997-41.984-47.997H273.985c-23.096 0-41.984 21.569-41.984 47.997v47.998H64a32.005 32.005 0 000 64.01zM288.005 128h111.997v128H288.005V128zM960 479.995H791.999v-47.997c0-26.373-18.879-47.998-41.984-47.998H609.978c-23.096 0-41.984 21.634-41.984 47.998v47.997H64a32.005 32.005 0 000 64.01h504.003v47.997c0 26.364 18.88 47.998 41.984 47.998h140.037c23.096 0 41.984-21.634 41.984-47.998v-47.997H960.01a32.005 32.005 0 10-.009-64.01zM735.995 576H623.998V448h111.997v128zM960 800.293v-.288H455.997v-47.998c0-26.363-18.88-47.998-41.984-47.998H274.05c-23.105 0-41.984 21.635-41.984 47.998v47.998H64v.288a32.005 32.005 0 000 64.01c.987 0 1.918-.196 2.886-.289H232v47.998c0 26.363 18.879 47.997 41.984 47.997h140.037c23.096 0 41.984-21.634 41.984-47.997v-47.998h501.108c.968.093 1.9.289 2.895.289a32.005 32.005 0 10-.009-64.01zM400.002 896H288.005V768h111.997v128z"/></svg>