<?xml version="1.0" standalone="no"?><!DOCTYPE svg PUBLIC "-//W3C//DTD SVG 1.1//EN" "http://www.w3.org/Graphics/SVG/1.1/DTD/svg11.dtd"><svg t="1566036776944" class="icon" viewBox="0 0 1024 1024" version="1.1" xmlns="http://www.w3.org/2000/svg" p-id="6463" xmlns:xlink="http://www.w3.org/1999/xlink" width="200" height="200"><defs><style type="text/css"></style></defs><path d="M64 223.995345h168.001164v47.997673c0 26.428509 18.878836 47.997673 41.984 47.997673h140.036654c23.095855 0 41.984-21.569164 41.984-47.997673v-47.997673h504.003491a32.004655 32.004655 0 0 0 0-64.009309H455.996509V111.988364c0-26.428509-18.878836-47.997673-41.984-47.997673H273.985164c-23.095855 0-41.984 21.569164-41.984 47.997673v47.997672H64a32.004655 32.004655 0 0 0 0 64.009309zM288.004655 128h111.997672V256H288.004655V128zM960 479.995345H791.998836v-47.997672c0-26.372655-18.878836-47.997673-41.984-47.997673H609.978182c-23.095855 0-41.984 21.634327-41.984 47.997673v47.997672H64a32.004655 32.004655 0 0 0 0 64.00931h504.003491v47.997672c0 26.363345 18.878836 47.997673 41.984 47.997673h140.036654c23.095855 0 41.984-21.634327 41.984-47.997673v-47.997672h168.001164a32.004655 32.004655 0 1 0-0.009309-64.00931zM735.995345 576H623.997673v-128h111.997672v128zM960 800.293236v-0.288581H455.996509v-47.997673c0-26.363345-18.878836-47.997673-41.984-47.997673H274.050327c-23.105164 0-41.984 21.634327-41.984 47.997673v47.997673H64v0.288581a32.004655 32.004655 0 0 0 0 64.009309c0.986764 0 1.917673-0.195491 2.885818-0.288581h165.115346v47.997672c0 26.363345 18.878836 47.997673 41.984 47.997673h140.036654c23.095855 0 41.984-21.634327 41.984-47.997673v-47.997672h501.108364c0.968145 0.093091 1.899055 0.288582 2.895127 0.288581a32.004655 32.004655 0 1 0-0.009309-64.009309zM400.002327 896H288.004655V768h111.997672v128z" fill="" p-id="6464"></path></svg>