<?xml version="1.0" standalone="no"?><!DOCTYPE svg PUBLIC "-//W3C//DTD SVG 1.1//EN" "http://www.w3.org/Graphics/SVG/1.1/DTD/svg11.dtd"><svg t="1543827724451" class="icon" style="" viewBox="0 0 1084 1024" version="1.1" xmlns="http://www.w3.org/2000/svg" p-id="10233" xmlns:xlink="http://www.w3.org/1999/xlink" width="211.71875" height="200"><defs><style type="text/css"></style></defs><path d="M1080.09609 434.500756c-4.216302-23.731757-26.9241-47.945376-50.595623-53.185637l-17.648235-4.095836a175.940257 175.940257 0 0 1-101.612877-80.832531 177.807476 177.807476 0 0 1-18.732427-129.801867l5.541425-16.684509c7.10748-23.129428-2.108151-54.992624-20.599646-70.833873 0 0-16.624276-14.094495-63.244529-41.199293-46.800951-26.984332-66.858502-34.513443-66.858502-34.513443-22.76803-8.372371-54.631227-0.361397-71.255503 17.407304l-12.287509 13.251234a173.470708 173.470708 0 0 1-120.465769 48.065842A174.13327 174.13327 0 0 1 421.329029 33.590675L409.583617 20.761071C393.140039 2.99237 361.096144-4.898138 338.267881 3.353767c0 0-20.358715 7.529111-67.099434 34.513443-46.800951 27.34573-63.244529 41.440225-63.244529 41.440225-18.431263 15.66055-27.646894 47.222582-20.539413 70.592941l5.059562 16.865207a178.048407 178.048407 0 0 1-18.672194 129.621169 174.916297 174.916297 0 0 1-102.275439 81.073463l-17.045906 3.854904c-23.310126 5.42096-46.258856 29.333415-50.595623 53.185637 0 0-3.854905 21.382674-3.854905 75.712737 0 54.330062 3.854905 75.712736 3.854905 75.712736 4.216302 23.972688 26.9241 47.945376 50.595623 53.185637l16.624276 3.854905a174.253736 174.253736 0 0 1 102.395904 81.314394c23.310126 40.837896 28.911785 87.337683 18.732427 129.801867l-4.81863 16.443578c-7.10748 23.129428 2.108151 54.992624 20.599646 70.833872 0 0 16.624276 14.094495 63.244529 41.199293 46.800951 27.104798 66.918735 34.513443 66.918735 34.513443 22.707798 8.372371 54.631227 0.361397 71.255503-17.407303l11.624947-12.588673a175.096996 175.096996 0 0 1 242.256662 0.120465l11.624947 12.648906c16.383345 17.708468 48.427239 25.598976 71.255503 17.347071 0 0 20.358715-7.529111 67.159666-34.513443 46.740719-27.104798 63.124063-41.199293 63.124064-41.199293 18.491496-15.600317 27.707127-47.463513 20.599646-70.833873l-5.059562-17.106139a176.723284 176.723284 0 0 1 18.672194-129.139305 176.060722 176.060722 0 0 1 102.395904-81.314394l16.68451-3.854905c23.310126-5.42096 46.258856-29.333415 50.595623-53.185637 0 0 3.854905-21.382674 3.854904-75.712737-0.240932-54.330062-4.095836-75.833202-4.095836-75.833202z m-537.819428 293.334149c-119.261112 0-216.175824-97.336342-216.175824-217.621412a216.657687 216.657687 0 0 1 216.236057-217.320249c119.200879 0 216.115591 97.276109 216.11559 217.56118-0.240932 120.044139-96.974945 217.320248-216.175823 217.320249z" p-id="10234" fill="#bfbfbf"></path></svg>