<svg class="icon" viewBox="0 0 1084 1024" xmlns="http://www.w3.org/2000/svg" width="211.719" height="200"><defs><style/></defs><path d="M1080.096 434.5c-4.216-23.731-26.924-47.945-50.596-53.185l-17.648-4.096a175.94 175.94 0 01-101.613-80.832 177.807 177.807 0 01-18.732-129.802l5.541-16.685c7.108-23.13-2.108-54.992-20.6-70.833 0 0-16.624-14.095-63.244-41.2-46.8-26.984-66.858-34.513-66.858-34.513-22.768-8.373-54.632-.362-71.256 17.407l-12.287 13.251a173.47 173.47 0 01-120.466 48.066 174.133 174.133 0 01-121.008-48.487l-11.745-12.83C393.14 2.992 361.096-4.899 338.268 3.354c0 0-20.359 7.529-67.1 34.513-46.8 27.346-63.244 41.44-63.244 41.44-18.431 15.661-27.647 47.223-20.54 70.593l5.06 16.866a178.048 178.048 0 01-18.672 129.62A174.916 174.916 0 0171.496 377.46l-17.045 3.855c-23.31 5.421-46.26 29.334-50.596 53.186 0 0-3.855 21.382-3.855 75.712s3.855 75.713 3.855 75.713C8.07 609.9 30.779 633.872 54.45 639.112l16.624 3.855A174.254 174.254 0 01173.47 724.28c23.31 40.838 28.911 87.338 18.732 129.802l-4.818 16.444c-7.108 23.129 2.108 54.992 20.6 70.833 0 0 16.623 14.095 63.244 41.2 46.8 27.105 66.918 34.513 66.918 34.513 22.708 8.373 54.632.362 71.256-17.407l11.625-12.589a175.097 175.097 0 01242.257.12l11.624 12.65c16.384 17.708 48.428 25.599 71.256 17.347 0 0 20.359-7.53 67.16-34.514 46.74-27.105 63.124-41.2 63.124-41.2 18.491-15.6 27.707-47.463 20.6-70.833l-5.06-17.106A176.723 176.723 0 01910.66 724.4a176.06 176.06 0 01102.396-81.314l16.684-3.855c23.31-5.42 46.26-29.333 50.596-53.185 0 0 3.855-21.383 3.855-75.713-.241-54.33-4.096-75.833-4.096-75.833zm-537.82 293.335c-119.26 0-216.175-97.336-216.175-217.622a216.658 216.658 0 01216.236-217.32c119.2 0 216.115 97.276 216.115 217.561-.24 120.045-96.974 217.32-216.175 217.32z" fill="#bfbfbf"/></svg>