<svg class="icon" viewBox="0 0 1024 1024" xmlns="http://www.w3.org/2000/svg" width="81" height="81"><defs><style/></defs><path d="M520 559h204c17.673 0 32 14.327 32 32 0 17.673-14.327 32-32 32H488c-17.673 0-32-14.327-32-32 0-.167.001-.334.004-.5a32.65 32.65 0 01-.004-.5V277c0-17.673 14.327-32 32-32 17.673 0 32 14.327 32 32v282zm-8 401C264.576 960 64 759.424 64 512S264.576 64 512 64s448 200.576 448 448-200.576 448-448 448zm0-64c212.077 0 384-171.923 384-384S724.077 128 512 128 128 299.923 128 512s171.923 384 384 384z"/></svg>