<?xml version="1.0" standalone="no"?><!DOCTYPE svg PUBLIC "-//W3C//DTD SVG 1.1//EN" "http://www.w3.org/Graphics/SVG/1.1/DTD/svg11.dtd"><svg t="1577099827399" class="icon" viewBox="0 0 1024 1024" version="1.1" xmlns="http://www.w3.org/2000/svg" p-id="1008" xmlns:xlink="http://www.w3.org/1999/xlink" width="81" height="81"><defs><style type="text/css"></style></defs><path d="M520 559h204c17.673 0 32 14.327 32 32 0 17.673-14.327 32-32 32H488c-17.673 0-32-14.327-32-32 0-0.167 0.001-0.334 0.004-0.5a32.65 32.65 0 0 1-0.004-0.5V277c0-17.673 14.327-32 32-32 17.673 0 32 14.327 32 32v282z m-8 401C264.576 960 64 759.424 64 512S264.576 64 512 64s448 200.576 448 448-200.576 448-448 448z m0-64c212.077 0 384-171.923 384-384S724.077 128 512 128 128 299.923 128 512s171.923 384 384 384z" p-id="1009"></path></svg>