<svg class="icon" viewBox="0 0 1024 1024" xmlns="http://www.w3.org/2000/svg" width="200" height="200"><defs><style/></defs><path d="M498.596 482.29H345.42v57.308h210.478V274.197h-57.301V482.29zm0 0"/><path d="M577.685 644.985h379.88v57.302h-379.88v-57.302zm0 0"/><path d="M577.685 773.765h379.88v57.307h-379.88v-57.307zm0 0"/><path d="M577.685 902.55h379.88v57.307h-379.88V902.55zm0 0"/><path d="M102.523 382.29a28.668 28.668 0 0023.367 2.56l190.81-61.886c15.053-4.883 23.298-21.04 18.415-36.09-4.882-15.052-21.04-23.297-36.093-18.415l-123.346 40c15.994-26.117 35.17-50.538 57.37-72.745 73.768-73.767 171.847-114.388 276.169-114.388 104.32 0 202.395 40.622 276.161 114.388S899.77 407.56 899.77 511.882c0 26.428-2.616 52.45-7.71 77.78h58.303c4.465-25.499 6.709-51.47 6.709-77.78 0-60.45-11.846-119.102-35.205-174.336-22.56-53.335-54.85-101.227-95.969-142.35-41.122-41.122-89.017-73.408-142.348-95.968-55.233-23.361-113.89-35.207-174.334-35.207-60.45 0-119.107 11.846-174.337 35.208-53.335 22.56-101.23 54.846-142.35 95.969-23.98 23.98-44.933 50.278-62.727 78.6l-20.738-105.654c-3.043-15.528-18.105-25.642-33.632-22.6-15.528 3.048-25.643 18.105-22.6 33.637l36.103 183.932a28.666 28.666 0 0013.588 19.178zm0 0"/><path d="M126.02 587.942H67.768c5.76 33.679 15.368 66.544 28.79 98.278 22.56 53.334 54.85 101.225 95.972 142.348 41.123 41.123 89.014 73.409 142.349 95.969 54.112 22.888 111.518 34.711 170.668 35.182v-57.324c-102.95-.941-199.595-41.446-272.5-114.349-55.501-55.502-92.237-124.77-107.027-200.104zm0 0"/></svg>