<svg class="icon" viewBox="0 0 1024 1024" xmlns="http://www.w3.org/2000/svg" width="200" height="200"><defs><style/></defs><path d="M898.832 900.518H103.817c-36.003 0-65.364-29.286-65.364-65.314v-554.95c0-36.041 29.362-65.326 65.364-65.326h795.016c36.003 0 65.199 29.285 65.199 65.327v554.95c-.001 36.027-29.197 65.313-65.2 65.313zM103.817 255.593c-13.576 0-24.712 11.086-24.712 24.663v554.95c0 13.575 11.137 24.662 24.712 24.662h795.016c13.577 0 24.547-11.087 24.547-24.663v-554.95c0-13.576-10.971-24.662-24.547-24.662H103.817zm560.53-3.819c-11.162 0-20.333-9.08-20.333-20.332V130.164c0-13.577-11.047-24.624-24.7-24.624H383.183c-13.577 0-24.713 11.046-24.713 24.624v101.278a20.278 20.278 0 01-20.332 20.332c-11.201 0-20.32-9.08-20.32-20.332V130.164c0-35.99 29.324-65.276 65.365-65.276h236.133c36.067 0 65.402 29.285 65.402 65.276v101.278c0 11.252-9.08 20.332-20.37 20.332zM413.232 521.726H75.694c-11.163 0-20.333-9.118-20.333-20.357 0-11.252 9.17-20.332 20.333-20.332h337.539c11.278 0 20.32 9.08 20.32 20.332 0 11.239-9.042 20.357-20.32 20.357zm499.661 0H575.368c-11.214 0-20.332-9.118-20.332-20.357 0-11.252 9.118-20.332 20.332-20.332h337.526c11.29 0 20.332 9.08 20.332 20.332 0 11.239-9.042 20.357-20.332 20.357zm-355.33 112.492H445.084c-11.213 0-20.332-9.08-20.332-20.331V445.123c0-11.251 9.12-20.332 20.332-20.332h112.48c11.29 0 20.37 9.08 20.37 20.332v168.764c0 11.25-9.082 20.33-20.372 20.33zm-92.146-40.703h71.827v-128.06h-71.827v128.06z" fill="#bfbfbf"/></svg>