<?xml version="1.0" standalone="no"?><!DOCTYPE svg PUBLIC "-//W3C//DTD SVG 1.1//EN" "http://www.w3.org/Graphics/SVG/1.1/DTD/svg11.dtd"><svg t="1553828490559" class="icon" style="" viewBox="0 0 1024 1024" version="1.1" xmlns="http://www.w3.org/2000/svg" p-id="1684" xmlns:xlink="http://www.w3.org/1999/xlink" width="200" height="200"><defs><style type="text/css"></style></defs><path d="M898.831744 900.517641 103.816972 900.517641c-36.002982 0-65.363683-29.286-65.363683-65.313541l0-554.949184c0-36.041868 29.361725-65.326844 65.363683-65.326844l795.015795 0c36.002982 0 65.198931 29.284977 65.198931 65.326844l0 554.949184C964.030675 871.231641 934.834726 900.517641 898.831744 900.517641L898.831744 900.517641zM103.816972 255.593236c-13.576203 0-24.711821 11.085476-24.711821 24.662703l0 554.949184c0 13.576203 11.136641 24.662703 24.711821 24.662703l795.015795 0c13.577227 0 24.547069-11.086499 24.547069-24.662703l0-554.949184c0-13.577227-10.970866-24.662703-24.547069-24.662703L103.816972 255.593236 103.816972 255.593236zM664.346245 251.774257c-11.161201 0-20.332071-9.080819-20.332071-20.332071l0-101.278661c0-13.576203-11.047614-24.623817-24.699542-24.623817L383.181611 105.539708c-13.576203 0-24.712845 11.04659-24.712845 24.623817l0 101.278661c0 11.252275-9.041934 20.332071-20.332071 20.332071-11.20111 0-20.319791-9.080819-20.319791-20.332071l0-101.278661c0-35.989679 29.323862-65.275679 65.364707-65.275679l236.133022 0c36.06745 0 65.402569 29.284977 65.402569 65.275679l0 101.278661C684.717202 242.694461 675.636383 251.774257 664.346245 251.774257L664.346245 251.774257zM413.233044 521.725502 75.694471 521.725502c-11.163247 0-20.333094-9.117658-20.333094-20.35663 0-11.252275 9.169847-20.332071 20.333094-20.332071l337.538573 0c11.277858 0 20.319791 9.080819 20.319791 20.332071C433.552835 512.607844 424.510902 521.725502 413.233044 521.725502L413.233044 521.725502zM912.894018 521.725502 575.367725 521.725502c-11.213389 0-20.332071-9.117658-20.332071-20.35663 0-11.252275 9.118682-20.332071 20.332071-20.332071l337.526293 0c11.290137 0 20.332071 9.080819 20.332071 20.332071C933.226089 512.607844 924.184155 521.725502 912.894018 521.725502L912.894018 521.725502zM557.56322 634.217552 445.085496 634.217552c-11.213389 0-20.332071-9.079796-20.332071-20.331048l0-168.763658c0-11.251252 9.118682-20.332071 20.332071-20.332071l112.478747 0c11.290137 0 20.370956 9.080819 20.370956 20.332071l0 168.763658C577.934177 625.137757 568.853357 634.217552 557.56322 634.217552L557.56322 634.217552zM465.417567 593.514525l71.827909 0L537.245476 465.454918l-71.827909 0L465.417567 593.514525 465.417567 593.514525z" p-id="1685" fill="#bfbfbf"></path></svg>