<svg class="icon" viewBox="0 0 1024 1024" xmlns="http://www.w3.org/2000/svg" width="200" height="200"><defs><style/></defs><path d="M530.944 458.24l4.8 3.456L657.92 568.512a32 32 0 01-37.44 51.584l-4.672-3.392-69.248-60.544v280.704a32 32 0 01-26.24 31.488l-5.76.512a32 32 0 01-31.424-26.24l-.512-5.76-.064-280.704-69.12 60.48a32 32 0 01-40.96.896l-4.16-3.968a32 32 0 01-.96-40.96l4.032-4.16 122.176-106.816a32 32 0 0137.312-3.456zM497.92 128c128.128 0 239.168 82.304 275.52 199.04 123.968 11.264 221.312 113.088 221.312 237.44 0 128.128-103.68 232.96-234.88 238.272h-5.888l-35.52.192a32 32 0 01-.192-64l35.264-.128 4.672-.064c96.384-3.84 172.544-80.896 172.544-174.272 0-96.128-80.512-174.464-179.584-174.464h-1.984a32 32 0 01-32-25.28C695.872 264.96 604.736 192 497.92 192c-116.096 0-212.48 85.76-223.104 196.48a32 32 0 01-28.352 28.8c-83.968 9.152-147.84 78.208-147.84 159.552l.192 7.936c3.84 85.76 77.056 154.112 166.592 154.112h45.632a32 32 0 010 64h-45.632c-123.392.064-225.088-94.848-230.528-216l-.192-9.28c0-106.88 76.352-197.184 179.968-219.904C239.488 226.112 357.76 128 497.856 128z"/></svg>