<?xml version="1.0" standalone="no"?><!DOCTYPE svg PUBLIC "-//W3C//DTD SVG 1.1//EN" "http://www.w3.org/Graphics/SVG/1.1/DTD/svg11.dtd"><svg t="1724316570161" class="icon" viewBox="0 0 1185 1024" version="1.1" xmlns="http://www.w3.org/2000/svg" p-id="1505" xmlns:xlink="http://www.w3.org/1999/xlink" width="231.4453125" height="200"><path d="M414.276535 230.004913l-2.443086-31.647244 26.446614 17.351559 29.437984-11.852598-8.143622 30.31685 20.423559 24.221229-31.623055 1.475527-16.722646 26.801386-11.239811-29.760504-30.663559-7.522772zM581.664252 176.902047l13.884472-28.542992 14.206993 28.220473 31.42148 4.321763-22.350614 22.092599 5.684409 31.123149-28.180157-14.513385-27.897953 14.819779 5.28126-31.066709-22.76989-21.689448zM896.507969 672.735748l17.754708 26.398236-31.494047-2.064126-19.560819 24.705008-7.95011-30.502299-29.575055-11.02211 26.744945-16.771024 1.104629-31.526299 24.414741 20.197795 30.268472-8.619338zM777.030551 801.961323l2.112504 31.647244-26.446614-17.682142-29.413795 11.546205 8.466141-30.308787-20.092976-24.221229 31.606929-1.153008 17.045166-26.793323 10.86085 29.704063 30.647433 7.837229zM609.312252 853.451591l-14.198929 28.518803-14.110236-28.542992-31.405355-4.636221 22.673134-22.084535-5.36189-31.12315 27.833449 14.835906 28.188221-14.803654-5.28126 31.066709 22.76989 22.060346zM298.435528 354.828094l-17.448315-26.390173 31.485984 2.394709 19.875275-24.753386 7.611465 30.865134 29.583118 11.288189-27.011024 16.779087-1.419086 31.526299-24.084158-20.504189-30.518425 8.280693zM962.56 91.53915a43.636913 43.636913 0 0 1 59.375874 15.601889l138.627024 236.753638c12.175118 20.447748 5.12 47.208819-15.609953 59.375874L229.13411 938.185575a43.636913 43.636913 0 0 1-59.375874-15.60189L31.12315 685.773606a43.636913 43.636913 0 0 1 15.601889-59.319433z m25.672567 24.108346a13.594205 13.594205 0 0 0-10.441575 1.548095L61.625449 652.054173a13.586142 13.586142 0 0 0-4.853921 18.83515l138.643149 236.793953a13.586142 13.586142 0 0 0 18.843213 4.837795l915.818834-534.915024a13.957039 13.957039 0 0 0 5.160315-18.778708l-138.602834-236.78589a13.594205 13.594205 0 0 0-8.401638-6.393953z" fill="#F5222D" p-id="1506"></path><path d="M395.981606 172.338394c123.670173-72.349228 271.11811-69.462677 388.394331-5.12l29.623433-17.335433a414.574866 414.574866 0 0 0-112.107842-47.071748 429.991307 429.991307 0 0 0-162.009701-10.498016 412.792945 412.792945 0 0 0-158.80063 54.707401 417.856504 417.856504 0 0 0-125.363402 111.922394A426.282331 426.282331 0 0 0 185.206929 405.004094a417.348535 417.348535 0 0 0-13.529701 120.977134l29.623433-17.335433c1.386835-133.958551 70.688252-263.958173 194.672882-336.307401z m397.666772 679.484472c-123.670173 72.365354-271.110047 69.462677-388.394331 5.128063l-29.623433 17.335433a414.679685 414.679685 0 0 0 112.075591 47.087874 429.991307 429.991307 0 0 0 162.009701 10.498016 412.744567 412.744567 0 0 0 158.808692-54.707402 423.145827 423.145827 0 0 0 209.105638-378.976756l-29.623433 17.335434c-1.072378 133.974677-70.712441 263.95011-194.350362 336.307401h-0.008063z" fill="#F5222D" p-id="1507"></path><path d="M478.377323 313.110173a226.271748 226.271748 0 0 1 109.979212-31.219905l45.668788-26.761071c-58.634079-9.13537-118.316346 2.314079-170.612914 32.735748a258.693039 258.693039 0 0 0-111.91433 132.71685l45.67685-26.761071a230.359685 230.359685 0 0 1 81.097575-80.589606l0.104819-0.120945z m232.568945 397.674835a226.328189 226.328189 0 0 1-109.979213 31.227968l-45.668787 26.753008c58.634079 9.13537 118.316346-2.314079 170.612913-32.735748a258.709165 258.709165 0 0 0 111.914331-132.71685l-45.676851 26.761071a225.215496 225.215496 0 0 1-81.097574 80.597669l-0.104819 0.112882zM188.57726 706.938961l-10.062614-17.424126 109.938897-63.471874 9.578835 16.585574 17.093543-9.869102-18.770645-32.509984-63.689575 36.767244c-4.047622-3.918614-7.804976-7.337323-11.272063-10.24l-16.859717 13.747401c3.249386 2.144756 6.595528 4.458835 9.869103 7.038993l-62.173733 35.896441 19.254426 33.348535 17.093543-9.869102zM317.44 781.142677l-19.060913-33.017953 32.679307-18.867401 4.741039 8.216189 17.093543-9.869103-48.474708-83.959937-49.772851 28.736504-7.933984-13.747401-17.432189 10.062614 7.933984 13.747402-49.264882 28.446236 48.764977 84.459842 17.093543-9.869102-5.031307-8.708032 32.171339-18.585196 19.060913 33.017952 17.432189-10.062614z m-12.505701-97.126803l-32.679307 18.867402-8.321008-14.41663 32.679307-18.867402 8.321008 14.41663z m-50.111496 28.930016l-32.171338 18.577134-8.321008-14.41663 32.171338-18.577134 8.321008 14.41663z m16.932284 29.325102l-32.171339 18.577134-8.127496-14.077984 32.171339-18.577134 8.127496 14.077984z m50.111496-28.930016l-32.679307 18.867402-8.127496-14.077984 32.679307-18.867402 8.127496 14.077984z m95.828661 7.684032c11.062425-6.38589 13.368441-15.537386 6.692284-27.099717l-25.05978-43.411149c3.55578-4.289512 7.014803-8.740283 10.48189-13.199118l-9.482079-16.424315c-3.467087 4.458835-6.92611 8.917669-10.48189 13.199118l-17.803086-30.832882 14.755275-8.51452-9.780409-16.932283-14.747213 8.522582-16.738771-28.994519-17.093544 9.869102 16.738772 28.99452-16.924221 9.772346 9.772347 16.924221 16.932283-9.772347 20.891213 36.202835a299.927181 299.927181 0 0 1-16.690394 15.214866l13.868347 14.344063a572.617575 572.617575 0 0 0 12.497638-12.804031l19.157669 33.179212c2.322142 4.031496 1.475528 7.200252-2.20926 9.328882-3.85411 2.225386-8.167811 4.039559-12.578268 5.692472l13.55389 14.964914 14.247307-8.224252z m111.390236-65.205417c6.369764-3.676724 10.15937-8.329071 11.151118-13.586142 1.225575-5.619906-3.201008-18.706142-13.182992-39.089386l-18.827086 4.160504c7.627591 14.368252 11.368819 23.164976 11.570393 26.615937 0.112882 3.289701-0.959496 5.692472-3.467086 7.143811l-6.539087 3.77348c-3.354205 1.935118-6.095622 1.064315-8.224252-2.628535l-38.702362-67.027654c8.933795-10.07874 17.762772-21.874898 26.390173-35.573921l-18.383622-8.603213a168.443969 168.443969 0 0 1-17.972409 26.914268l-26.801386-46.426709-17.254803 9.965859 77.686929 134.571338c6.966425 12.070299 16.077606 15.077795 27.478677 8.498394l15.077795-8.708031z m-78.501291 45.547842c13.626457-12.779843 25.285543-25.100094 34.783748-37.291339l-12.473449-14.247307a157.808882 157.808882 0 0 1-14.706897 17.875654l-38.412095-66.535811 20.617071-11.900976-9.869102-17.093544-20.617071 11.900977-27.18841-47.087874-17.254803 9.965858 72.94589 126.363212c2.999433 5.192567 2.418898 9.99811-1.564221 14.311811l13.739339 13.739339z m201.663496-113.978457l-65.21348-112.946393c0.137071-7.901732-0.16126-15.771213-0.886929-23.624567l53.78822-31.050583-9.869102-17.093543-144.795213 83.597102 9.869102 17.093543 71.05915-41.024504c1.894803 37.331654-9.45789 76.517795-33.848441 117.856756l20.367118 8.570961c14.860094-26.898142 25.05978-53.344756 30.445859-79.243087l50.990362 88.313953 18.093354-10.449638z m28.728441-76.017889l5.716661-21.850709c-21.157291-7.224441-45.330142-12.707276-72.349228-16.54526l-5.603779 19.318929c29.163843 4.837795 53.385071 11.191433 72.244409 19.07704z m18.738394-105.33493l5.265134-19.13348c-12.739528-4.25726-27.414173-7.627591-43.612725-10.127118l-5.410268 18.101417c17.674079 2.74948 32.380976 6.555213 43.757859 11.159181z m88.934803 67.74526l-15.76315-27.317417 21.786205-12.578268 15.674457 27.148095 16.085669-9.288567-15.674457-27.148095 22.455433-12.965291 4.063748 7.038992c2.031874 3.523528 1.249764 6.426205-2.435023 8.554835l-11.852599 6.176252 12.175118 12.183181 12.570205-7.256693c11.393008-6.579402 13.997354-15.230992 7.998488-25.616126l-42.862866-74.244032-33.848441 19.544693-0.532157-0.145133a202.445606 202.445606 0 0 0 18.738393-38.750741L790.173228 306.87748l-92.676031 53.506016 8.321008 14.41663 31.679496-18.286866-3.85411 13.836094c8.401638-0.16126 16.125984 0.08063 23.261732 0.427339l-37.202646 21.479811 52.538457 90.998929 16.424315-9.482079z m-25.35811-117.856756c-6.724535-0.806299-14.126362-1.233638-21.947465-1.628724l33.517858-19.351181c-3.305827 7.047055-7.143811 13.948976-11.570393 20.979905z m47.571653 16.996788l-22.455433 12.965291-6.095622-10.56252 22.455433-12.965291 6.095622 10.56252z m-38.541102 22.253858l-21.786205 12.578268-6.095622-10.56252 21.786205-12.578268 6.095622 10.56252z m-24.253481 137.570772c-0.330583-19.915591 1.112693-30.582929 4.458835-32.518048 1.846425-1.064315 4.628157-0.886929 8.627402 0.604725 8.304882 2.797858 16.400126 3.265512 24.269606 1.402961 8.006551-2.386646 17.464441-6.506835 28.462362-12.626646 10.812472-6.031118 20.96378-11.66715 30.187843-16.988725l38.379842-22.157102-5.781165-19.673701c-4.329827 2.942992-10.675402 7.055118-19.028662 12.320252-8.708031 5.031307-16.996787 10.038425-25.374236 14.876221-13.07011 7.546961-24.398614 13.868346-34.211275 19.302803-10.07874 5.378016-18.230425 8.296819-24.543748 8.587087-5.28126 0.145134-11.070488-0.983685-17.440252-3.120378l-2.902678-0.774048-36.767244-63.681511-38.379842 22.157102 9.288567 16.085669 22.116787-12.771779 26.511118 45.91874c-4.571717 7.555024-7.014803 20.359055-7.651779 38.605606l19.778519 4.450772z m38.476599-112.938331l-21.786205 12.578268-6.095622-10.56252 21.786205-12.578268 6.095622 10.56252z m38.541102-22.253858l-22.455433 12.965291-6.095622-10.56252 22.455433-12.957228 6.095622 10.56252z m172.241638-43.798173c12.062236-6.966425 14.610142-16.488819 7.740472-28.381733l-39.863433-69.051464 23.302048-13.449071-9.869103-17.093543-23.302047 13.44907-14.513386-25.132346-17.424126 10.062614 14.513386 25.132347-62.681701 36.186708 9.869103 17.093544 62.6817-36.186709 37.34778 64.689386c2.515654 4.354016 1.523906 8.062992-2.838173 10.578645-6.692283 3.870236-14.190866 7.522772-21.955528 11.110804l13.529701 14.537574 23.463307-13.545826z m-130.942992-43.725607l5.386079-20.092976c-12.900787-4.168567-27.389984-7.200252-43.65304-9.433701l-5.321575 18.27074c17.682142 2.74948 32.219717 6.643906 43.596599 11.255937z m80.702488 27.148095l8.466142-17.851465c-10.756031-5.853732-24.825953-12.038047-41.846929-18.302992l-8.740284 16.22274c16.883906 6.789039 30.808693 13.497449 42.121071 19.931717z m-31.219905 99.577952c-0.354772-20.350992 1.064315-31.445669 4.418519-33.380787 2.007685-1.161071 5.128063-1.177197 9.119244 0.32252a42.951559 42.951559 0 0 0 24.938835 1.007874c8.175874-2.483402 18.141732-6.893858 29.639559-13.303937 11.320441-6.321386 21.810394-12.150929 31.365039-17.657953l35.525544-20.520315-5.966614-20.012346c-3.999244 2.74948-10.006173 6.668094-17.859528 11.651023-7.95011 4.805543-15.722835 9.522394-23.439118 13.973166a2406.72252 2406.72252 0 0 1-35.719055 20.181669c-10.586709 5.66022-19.165732 8.603213-25.712882 9.256315-5.28126 0.145134-11.401071-0.790173-17.940158-2.822047l-3.080063-0.685355-36.767244-63.681512-39.041008 22.544126 9.482079 16.424315 22.455433-12.965291 26.511118 45.91874c-4.57978 7.555024-7.256693 20.72189-7.700157 39.299024l19.770457 4.450771z" fill="#F5222D" p-id="1508"></path></svg>