<svg xmlns="http://www.w3.org/2000/svg" viewBox="0 0 1024 1024" width="200" height="200"><path d="M512 2C230.2 2 2 230.2 2 512s228.2 510 510 510 510-228.2 510-510S793.3 2 512 2z m235.9 442c-1 4.6-3.6 10.8-7.2 19.1l-0.5 0.5c-21.6 45.8-77.3 135.5-77.3 135.5l-0.5-0.5-16.5 28.3h78.8L574.3 826.8l34-136h-61.8l21.6-90.2c-17.5 4.1-38.1 9.8-62.3 18 0 0-33 19.1-94.8-37.1 0 0-41.7-37.1-17.5-45.8 10.3-4.1 50-8.8 81.4-12.9 42.2-5.7 68.5-8.8 68.5-8.8s-130.3 2.1-161.2-3.1c-30.9-4.6-70.1-56.7-78.3-102 0 0-12.9-24.7 27.8-12.9 40.2 11.8 209.2 45.8 209.2 45.8S321.4 375 307 358.5c-14.4-16.5-42.8-89.6-39.2-134.5 0 0 1.5-11.3 12.9-8.2 0 0 161.8 74.2 272.5 114.4C664.5 371.4 760.8 392 747.9 444z" fill="#3296FA"/></svg>
