<svg xmlns="http://www.w3.org/2000/svg" viewBox="0 0 1024 1024" width="200" height="200"><path d="M517.30912244 23.0407001c-277.94803947-0.11230224-503.114027 225.0536853-503.11402702 503.00172479 0 219.66317786 140.82700667 406.42179996 337.01901675 475.03846748 26.39102597 6.73813429 22.34814539-12.24094396 22.3481454-25.04339914v-87.14653682c-152.61874168 17.9683581-158.68306256-83.10365624-169.01486845-99.94899196-20.77591406-35.37520501-69.62738767-44.35938408-55.0280967-61.20471981 34.81369383-17.9683581 70.18889885 4.49208953 111.17921577 65.13529813 29.76009311 43.91017513 87.48344355 36.49822743 116.90662996 29.19858195 6.40122758-26.39102597 20.21440287-49.97449598 38.96887665-68.39206307-157.89694687-28.07555954-223.93066292-124.65548435-223.93066294-239.42837176 0-55.5896079 18.30526482-106.7994285 54.35428331-148.01434994-22.90965658-68.16745859 2.13374251-126.34001793 5.50280964-134.98729027 65.3599026-5.95201861 133.07815223 46.71773107 138.46865968 50.87291388 37.17204084-9.99489919 79.50998463-15.38540662 126.90152914-15.38540659 47.72845123 0 90.29099949 5.50280967 127.57534256 15.61001106 12.69015291-9.65799248 75.69170854-54.80349223 136.33491714-49.30068255 3.25676491 8.64727234 27.73865283 65.47220485 6.1766231 132.74124553 36.49822743 41.32722364 54.91579446 92.87395098 54.91579447 148.80046559 0 114.99749189-66.25832052 211.57741672-224.82908082 239.54067401 26.5033282 26.05411926 42.89945497 62.32774217 42.89945498 102.41964122v126.45232019c0.89841792 9.99489919 0 20.21440287 16.95763795 20.21440287 199.22417052-67.26904065 342.52182644-255.3752896 342.52182644-477.05990776 0-277.94803947-225.27828977-503.114027-503.11402701-503.11402703z" fill="currentColor"/></svg>
