<svg xmlns="http://www.w3.org/2000/svg" viewBox="0 0 1024 1024" width="200" height="200"><path d="M213.573746 512.08574a296.892457 296.892457 0 0 1 15.663636-94.698456L53.712514 286.089155a504.154105 504.154105 0 0 0 0 451.737229l175.422492-131.502883a296.022255 296.022255 0 0 1-15.356507-94.288949" fill="#FBBC05"/><path d="M521.881206 208.845928a305.696854 305.696854 0 0 1 192.007518 67.210309l151.773472-148.446228A527.547183 527.547183 0 0 0 53.763703 284.195186l175.422491 131.349318a306.771809 306.771809 0 0 1 292.541447-206.698576" fill="#EA4335"/><path d="M521.881206 815.325553a307.130128 307.130128 0 0 1-292.643824-206.698576l-175.524868 131.29813A521.148639 521.148639 0 0 0 521.881206 1023.969287a503.130338 503.130338 0 0 0 339.839486-127.100685l-166.771659-126.128105a327.861412 327.861412 0 0 1-173.221392 44.585056" fill="#34A853"/><path d="M1023.475893 513.774956a415.64944 415.64944 0 0 0-11.875698-92.70211h-486.289369v197.023977h279.744358a229.528582 229.528582 0 0 1-106.522966 152.43892l166.618094 126.128106a502.004194 502.004194 0 0 0 158.069639-382.888893" fill="#4285F4"/></svg>
