<?xml version="1.0" standalone="no"?><!DOCTYPE svg PUBLIC "-//W3C//DTD SVG 1.1//EN" "http://www.w3.org/Graphics/SVG/1.1/DTD/svg11.dtd"><svg t="1747409043186" class="icon" viewBox="0 0 1024 1024" version="1.1" xmlns="http://www.w3.org/2000/svg" p-id="4834" width="128" height="128" xmlns:xlink="http://www.w3.org/1999/xlink"><path d="M44.416 853.333333v-85.205333a170.666667 170.666667 0 0 1 170.666667-170.666667h170.837333a37637.589333 37637.589333 0 0 1 0-206.165333C324.309333 352.170667 281.6 285.141333 281.6 211.968c0-116.906667 90.197333-211.072 231.168-211.072 140.970667 0 230.741333 94.208 230.741333 211.072 0 73.216-40.96 140.245333-102.528 179.328 0.256 0.170667 0.256 68.906667 0 206.165333h171.989334a170.666667 170.666667 0 0 1 170.666666 170.666667V853.333333a170.666667 170.666667 0 0 1-170.666666 170.666667H215.082667a170.666667 170.666667 0 0 1-170.666667-170.666667z m84.266667-84.650666v104.277333a85.333333 85.333333 0 0 0 85.333333 85.333333H811.52a85.333333 85.333333 0 0 0 85.333333-85.333333v-104.277333a85.333333 85.333333 0 0 0-85.333333-85.333334h-256.64l8.96-342.698666c66.944-21.333333 100.394667-64.256 100.394667-128.682667 0-61.952-57.344-129.322667-151.466667-129.322667-94.122667 0-146.645333 61.610667-146.645333 129.322667 0 71.466667 34.816 114.346667 104.362666 128.682667v342.698666H214.016a85.333333 85.333333 0 0 0-85.333333 85.333334z m167.125333 138.368c-50.432 0-91.434667-41.557333-91.434667-92.586667s41.002667-92.586667 91.434667-92.586667c50.389333 0 91.434667 41.557333 91.434667 92.586667 0 24.832-9.6 48.170667-27.008 65.706667-17.237333 17.322667-40.106667 26.88-64.426667 26.88z m0-119.466667a27.093333 27.093333 0 0 0-27.306667 26.88c0 14.805333 12.245333 26.88 27.306667 26.88a27.306667 27.306667 0 0 0 19.498667-8.106667 26.453333 26.453333 0 0 0 7.808-18.773333 27.093333 27.093333 0 0 0-27.306667-26.88z" fill="#1296db" p-id="4835"></path></svg>