<svg xmlns="http://www.w3.org/2000/svg" viewBox="0 0 1024 1024" width="200" height="200"><path d="M712.149333 352.234667c5.184 0 10.282667 0.064 15.381334 0.341333-26.944-146.837333-178.602667-259.2-361.642667-259.2-202.090667 0-365.888 137.002667-365.888 306.005333 0 99.093333 56.298667 187.178667 143.637333 243.093334l3.349334 2.133333-35.349334 110.72 132.266667-67.370667 6.229333 1.792a431.296 431.296 0 0 0 140.330667 14.848 237.141333 237.141333 0 0 1-11.626667-73.002666c0.021333-154.282667 149.290667-279.36 333.312-279.36z m-218.901333-107.968c28.373333 0 51.349333 22.250667 51.349333 49.728 0 27.456-22.976 49.770667-51.349333 49.770666-28.416 0-51.370667-22.293333-51.370667-49.770666-0.021333-27.498667 22.954667-49.728 51.370667-49.728z m-254.677333 99.477333c-28.394667 0-51.370667-22.293333-51.370667-49.770667 0-27.477333 22.997333-49.728 51.370667-49.728 28.394667 0 51.434667 22.250667 51.434666 49.728s-23.04 49.770667-51.434666 49.770667z" fill="#46AF35"/><path d="M405.76 633.408c0 142.805333 138.453333 258.56 309.162667 258.56a363.392 363.392 0 0 0 103.04-14.762667l111.701333 56.96-29.866667-93.589333 2.816-1.792c73.770667-47.232 121.344-121.621333 121.344-205.397333 0-142.741333-138.389333-258.496-309.056-258.496-170.688 0.042667-309.141333 115.776-309.141333 258.517333z m373.312-89.045333c0-23.168 19.413333-41.962667 43.370667-41.962667 24.021333 0 43.413333 18.816 43.413333 41.962667 0 23.253333-19.413333 42.090667-43.413333 42.090666-23.957333 0-43.370667-18.858667-43.370667-42.090666z m-215.146667 0c0-23.168 19.456-41.962667 43.413334-41.962667 23.978667 0 43.413333 18.816 43.413333 41.962667 0 23.253333-19.434667 42.090667-43.413333 42.090666-23.957333 0-43.413333-18.858667-43.413334-42.090666z" fill="#46AF35"/></svg>
