<svg t="1627279878333" class="icon" viewBox="0 0 1285 1024" version="1.1" xmlns="http://www.w3.org/2000/svg" p-id="8535" width="40" height="40"><path d="M1141.76 855.04h-286.72c0 40.96 30.72 71.68 71.68 71.68h107.52c20.48 0 35.84 15.36 35.84 35.84s-15.36 35.84-35.84 35.84h-783.36c-20.48 0-35.84-15.36-35.84-35.84s15.36-35.84 35.84-35.84h107.52c40.96 0 71.68-30.72 71.68-71.68h-286.72c-76.8 0-143.36-61.44-143.36-143.36v-568.32c0-76.8 61.44-143.36 143.36-143.36h993.28c76.8 0 143.36 61.44 143.36 143.36v568.32c5.12 76.8-56.32 143.36-138.24 143.36z m71.68-711.68c0-40.96-30.72-71.68-71.68-71.68h-993.28c-40.96 0-71.68 30.72-71.68 71.68v568.32c0 40.96 30.72 71.68 71.68 71.68h993.28c40.96 0 71.68-30.72 71.68-71.68v-568.32z m-143.36 568.32h-855.04c-40.96 0-71.68-30.72-71.68-71.68v-424.96c0-40.96 30.72-71.68 71.68-71.68h855.04c40.96 0 71.68 30.72 71.68 71.68v424.96c0 40.96-30.72 71.68-71.68 71.68z" p-id="8536" fill="#1977FD"></path></svg>