<?xml version="1.0" standalone="no"?><!DOCTYPE svg PUBLIC "-//W3C//DTD SVG 1.1//EN" "http://www.w3.org/Graphics/SVG/1.1/DTD/svg11.dtd"><svg t="1627279238245" class="icon" viewBox="0 0 1115 1024" version="1.1" xmlns="http://www.w3.org/2000/svg" p-id="4112" width="43.5546875" height="40" xmlns:xlink="http://www.w3.org/1999/xlink"><defs><style type="text/css">@font-face { font-family: feedback-iconfont; src: url("//at.alicdn.com/t/font_1031158_1uhr8ri0pk5.eot?#iefix") format("embedded-opentype"), url("//at.alicdn.com/t/font_1031158_1uhr8ri0pk5.woff2") format("woff2"), url("//at.alicdn.com/t/font_1031158_1uhr8ri0pk5.woff") format("woff"), url("//at.alicdn.com/t/font_1031158_1uhr8ri0pk5.ttf") format("truetype"), url("//at.alicdn.com/t/font_1031158_1uhr8ri0pk5.svg#iconfont") format("svg"); }
</style></defs><path d="M751.388 68.267a34.133 34.133 0 0 1 0-68.267h227.556a91.022 91.022 0 0 1 91.022 91.022v227.556a34.133 34.133 0 1 1-68.266 0V91.022a22.756 22.756 0 0 0-22.756-22.755H751.388M1001.7 705.422a34.133 34.133 0 0 1 68.266 0v227.556A91.022 91.022 0 0 1 978.944 1024H748.885a34.133 34.133 0 0 1 0-68.267H978.49a22.756 22.756 0 0 0 22.755-22.755V705.422M364.09 955.733a34.133 34.133 0 1 1 0 68.267H136.533a91.022 91.022 0 0 1-91.022-91.022V705.422a34.133 34.133 0 0 1 68.267 0v227.556a22.756 22.756 0 0 0 22.755 22.755H364.09M113.778 318.578a34.133 34.133 0 1 1-68.267 0V91.022A91.022 91.022 0 0 1 136.533 0H364.09a34.133 34.133 0 0 1 0 68.267H136.533a22.756 22.756 0 0 0-22.755 22.755v227.556M34.133 477.867a34.133 34.133 0 0 0 0 68.266h168.619v-68.266z m1046.756 0H912.27v68.266h168.619a34.133 34.133 0 0 0 0-68.266zM202.752 157.24h709.746v320.627H202.752z m0 388.893h709.746V866.76H202.752z" fill="#1977FD" p-id="4113"></path></svg>