<?xml version="1.0" standalone="no"?><!DOCTYPE svg PUBLIC "-//W3C//DTD SVG 1.1//EN" "http://www.w3.org/Graphics/SVG/1.1/DTD/svg11.dtd"><svg t="1676209854312" class="icon" viewBox="0 0 1024 1024" version="1.1" xmlns="http://www.w3.org/2000/svg" p-id="3033" xmlns:xlink="http://www.w3.org/1999/xlink" width="128" height="128"><path d="M173.077333 362.666667l91.114667-214.677334a65.6 65.6 0 0 1 86.016-34.773333c11.584 4.906667 24.96 10.282667 40.896 16.448 8.277333 3.2 16.789333 6.464 27.904 10.666667 28.202667 10.709333 39.296 14.933333 46.144 17.642666l51.477333-51.669333c28.181333-28.16 74.112-27.946667 102.570667 0.533333l195.925333 195.925334c16.426667 16.426667 23.445333 38.634667 21.056 59.904H896a42.666667 42.666667 0 0 1 42.666667 42.666666v490.666667a42.666667 42.666667 0 0 1-42.666667 42.666667H128a42.666667 42.666667 0 0 1-42.666667-42.666667V405.333333a42.666667 42.666667 0 0 1 42.666667-42.666666h45.077333z m48.96 0h39.104l169.194667-169.770667-27.328-10.389333c-11.2-4.245333-19.818667-7.530667-28.224-10.794667a1459.2 1459.2 0 0 1-42.197333-17.002667 20.522667 20.522667 0 0 0-26.901334 10.88L222.037333 362.666667z m108.842667 0h454.954667a23.509333 23.509333 0 0 0-5.290667-25.322667l-195.925333-195.925333a23.36 23.36 0 0 0-33.024-0.213334L330.88 362.666667zM128 405.333333v490.666667h768V405.333333H128z m597.333333 320a85.333333 85.333333 0 1 1 0-170.666666 85.333333 85.333333 0 0 1 0 170.666666z m0-42.666666a42.666667 42.666667 0 1 0 0-85.333334 42.666667 42.666667 0 0 0 0 85.333334z" fill="#4296d5" p-id="3034"></path></svg>