<?xml version="1.0" standalone="no"?><!DOCTYPE svg PUBLIC "-//W3C//DTD SVG 1.1//EN" "http://www.w3.org/Graphics/SVG/1.1/DTD/svg11.dtd"><svg t="1627279797174" class="icon" viewBox="0 0 1260 1024" version="1.1" xmlns="http://www.w3.org/2000/svg" p-id="7665" xmlns:xlink="http://www.w3.org/1999/xlink" width="49.21875" height="40"><defs><style type="text/css">@font-face { font-family: feedback-iconfont; src: url("//at.alicdn.com/t/font_1031158_1uhr8ri0pk5.eot?#iefix") format("embedded-opentype"), url("//at.alicdn.com/t/font_1031158_1uhr8ri0pk5.woff2") format("woff2"), url("//at.alicdn.com/t/font_1031158_1uhr8ri0pk5.woff") format("woff"), url("//at.alicdn.com/t/font_1031158_1uhr8ri0pk5.ttf") format("truetype"), url("//at.alicdn.com/t/font_1031158_1uhr8ri0pk5.svg#iconfont") format("svg"); }
</style></defs><path d="M797.14798 481.753a269.194 269.194 0 0 0 102.892-211.929C900.03998 120.99 779.02998 0 630.15698 0 481.28298 0 360.27398 120.99 360.27398 269.824c0 85.878 40.33 162.462 102.912 211.929A450.974 450.974 0 0 0 309.84198 582.774c-85.543 85.524-132.608 199.208-132.608 320.236 0 25.01 0 51.712 0.197 76.367a44.898 44.898 0 0 0 44.82 44.623h816.01a44.8 44.8 0 0 0 44.82-44.623V903.01c0-121.009-47.066-234.732-132.609-320.236a451.072 451.072 0 0 0-153.344-101.021z" p-id="7666" fill="#04C361"></path><path d="M1186.18898 580.391A378.644 378.644 0 0 0 1061.81198 473.03a223.783 223.783 0 0 0 64.237-157.657c0-49.742-15.872-96.67-45.746-136.074A225.34 225.34 0 0 0 964.70998 99.9a37.297 37.297 0 0 0-46.14 25.718c-5.592 19.89 5.79 40.724 25.6 46.356 63.114 18.196 107.363 77.135 107.363 143.4a148.913 148.913 0 0 1-81.23 133.06 38.065 38.065 0 0 0-20.363 36.608c1.32 15.203 11.58 28.16 25.975 32.65 125.479 39.601 209.703 155.038 209.703 287.173v63.074c0 20.638 16.62 37.534 37.16 37.711h0.196a37.396 37.396 0 0 0 37.337-37.336V805.06c-0.197-81.644-25.777-159.35-74.142-224.69z m-901.77-62.503a36.982 36.982 0 0 0 25.955-32.65 37.455 37.455 0 0 0-20.362-36.628 148.913 148.913 0 0 1-81.231-133.06c0-66.245 44.071-125.184 107.382-143.4a37.612 37.612 0 0 0 25.58-46.356 37.376 37.376 0 0 0-46.139-25.718 225.32 225.32 0 0 0-115.593 79.4 223.252 223.252 0 0 0-45.746 136.074c0 60.258 23.533 116.381 64.237 157.676A380.475 380.475 0 0 0 74.14498 580.569 373.839 373.839 0 0 0 0.00198 805.258v63.232c0 20.657 16.798 37.356 37.356 37.356h0.197a37.317 37.317 0 0 0 37.14-37.73V805.06c0-132.332 84.401-247.769 209.723-287.173z" p-id="7667" fill="#04C361"></path></svg>