<?xml version="1.0" standalone="no"?><!DOCTYPE svg PUBLIC "-//W3C//DTD SVG 1.1//EN" "http://www.w3.org/Graphics/SVG/1.1/DTD/svg11.dtd"><svg t="1581238842264" class="icon" viewBox="0 0 1024 1024" version="1.1" xmlns="http://www.w3.org/2000/svg" p-id="1409" xmlns:xlink="http://www.w3.org/1999/xlink" width="200" height="200"><defs><style type="text/css"></style></defs><path d="M512 0C229.233778 0 0 229.233778 0 512s229.233778 512 512 512 512-229.233778 512-512A512 512 0 0 0 512 0z m0 938.666667C276.366222 938.666667 85.333333 747.633778 85.333333 512 85.333333 276.366222 276.366222 85.333333 512 85.333333c235.633778 0 426.666667 191.032889 426.666667 426.666667a426.666667 426.666667 0 0 1-426.666667 426.666667z m0-717.653334a170.666667 170.666667 0 0 0-170.666667 170.666667 42.666667 42.666667 0 0 0 85.333334 0 85.333333 85.333333 0 1 1 85.333333 85.333333 42.666667 42.666667 0 0 0-42.666667 42.666667v111.36a42.666667 42.666667 0 0 0 85.333334 0v-74.24A170.666667 170.666667 0 0 0 512 221.013333z m-42.666667 542.293334a42.666667 42.666667 0 1 0 85.333334 0 42.666667 42.666667 0 0 0-85.333334 0z" p-id="1410"></path></svg>