<?xml version="1.0" standalone="no"?><!DOCTYPE svg PUBLIC "-//W3C//DTD SVG 1.1//EN" "http://www.w3.org/Graphics/SVG/1.1/DTD/svg11.dtd"><svg t="1577252187056" class="icon" viewBox="0 0 1024 1024" version="1.1" xmlns="http://www.w3.org/2000/svg" p-id="2508" xmlns:xlink="http://www.w3.org/1999/xlink" width="81" height="81"><defs><style type="text/css"></style></defs><path d="M747.59340925 691.12859384c11.51396329 0.25305413 22.43746719-0.21087818 40.74171707-1.51832482 29.35428085-2.10878421 35.84933734-2.36183835 46.47761114-0.8856895 24.71495444 3.37405491 41.12129828 21.76265671 32.47528161 47.95376084-85.57447632 258.19957947-442.00123984 249.76444099-628.67084683 50.73735554-153.47733892-159.33976008-153.09775772-414.41833795 0.92786545-573.42069196 159.71934128-162.67163983 424.03439521-166.59397897 565.78689185 0.63263534 80.38686649 94.81095318 108.34934958 169.16669549 89.11723508 230.57450162-15.01454608 47.99593598-50.61082928 77.68762207-119.77896259 114.63352789-4.89237973 2.65706845-29.35428085 15.52065436-35.84933652 19.02123633-46.94154346 25.30541465-63.51659033 41.20565021-62.20914449 58.45550757 2.95229856 39.13904114 24.16667102 52.7196135 70.98168823 53.81618115z m44.41100207 50.10472101c-19.82257471 1.43397372-32.05352527 1.940082-45.63409763 1.6448519-70.34905207-1.60267593-115.98314969-30.91478165-121.38163769-101.64341492-3.45840683-46.05585397 24.7571304-73.13264758 89.24376132-107.96976837 6.7902866-3.66928501 31.37871396-16.57504688 36.06021551-19.06341229 57.69634516-30.83042972 85.15271997-53.73183005 94.76877722-84.47790866 12.77923398-40.78389304-9.10994898-98.94417051-79.24812286-181.6507002-121.17075953-142.97559219-350.14258521-139.60153647-489.2380134 2.06660824-134.49827774 138.84237405-134.79350784 362.12048163-0.42175717 501.637667 158.53842169 168.99799328 451.9968783 181.18676788 534.57688175-11.80919339-4.68150156 0.2952301-10.71262573 0.67481131-18.72600705 1.26527069z" p-id="2509"></path><path d="M346.03865637 637.18588562a78.82636652 78.82636652 0 0 0 78.32025825-79.29029883c0-43.69401562-35.005823-79.29029883-78.32025825-79.29029882a78.82636652 78.82636652 0 0 0-78.36243338 79.29029882c0 43.69401562 35.005823 79.29029883 78.36243338 79.29029883z m0-51.7495729a27.07679361 27.07679361 0 0 1-26.5706845-27.54072593c0-15.30977536 11.97789643-27.54072593 26.5706845-27.54072592 14.55061295 0 26.57068533 12.23095057 26.57068533 27.54072592a27.07679361 27.07679361 0 0 1-26.57068533 27.54072593zM475.7289063 807.11174353a78.82636652 78.82636652 0 0 0 78.3624334-79.29029882c0-43.69401562-34.96364785-79.29029883-78.32025825-79.29029883a78.82636652 78.82636652 0 0 0-78.32025742 79.29029883c0 43.69401562 34.96364785 79.29029883 78.32025742 79.29029882z m0-51.74957208a27.07679361 27.07679361 0 0 1-26.57068532-27.54072674c0-15.30977536 12.06224753-27.54072593 26.57068532-27.54072593 14.59278892 0 26.57068533 12.23095057 26.57068453 27.54072593a27.07679361 27.07679361 0 0 1-26.57068453 27.54072674zM601.24376214 377.21492718a78.82636652 78.82636652 0 0 0 78.32025742-79.29029883c0-43.69401562-34.96364785-79.29029883-78.32025742-79.29029882a78.82636652 78.82636652 0 0 0-78.32025823 79.29029883c0 43.69401562 34.96364785 79.29029883 78.32025824 79.29029883z m1e-8-51.74957208a27.07679361 27.07679361 0 0 1-26.57068534-27.54072675c0-15.30977536 11.97789643-27.54072593 26.57068534-27.54072591 14.55061295 0 26.57068533 12.23095057 26.57068451 27.54072592a27.07679361 27.07679361 0 0 1-26.57068451 27.54072674zM378.80916809 433.85687983a78.82636652 78.82636652 0 0 0 78.32025824-79.29029883c0-43.69401562-34.96364785-79.29029883-78.32025824-79.29029802a78.82636652 78.82636652 0 0 0-78.32025742 79.29029802c0 43.69401562 34.96364785 79.29029883 78.32025742 79.29029883z m0-51.74957209a27.07679361 27.07679361 0 0 1-26.57068451-27.54072674c0-15.30977536 11.97789643-27.54072593 26.57068451-27.54072593 14.55061295 0 26.57068533 12.23095057 26.57068533 27.54072593a27.07679361 27.07679361 0 0 1-26.57068533 27.54072674z" p-id="2510"></path></svg>