<?xml version="1.0" standalone="no"?><!DOCTYPE svg PUBLIC "-//W3C//DTD SVG 1.1//EN" "http://www.w3.org/Graphics/SVG/1.1/DTD/svg11.dtd"><svg t="1566035943711" class="icon" viewBox="0 0 1024 1024" version="1.1" xmlns="http://www.w3.org/2000/svg" p-id="4805" xmlns:xlink="http://www.w3.org/1999/xlink" width="200" height="200"><defs><style type="text/css"></style></defs><path d="M208.736 566.336H64.384v59.328h144.352v-59.328z m0-336.096H165.44V74.592c0-7.968 4.896-14.848 10.464-14.848h502.016V0.448H175.936c-38.72 1.248-69.248 34.368-68.192 74.144v155.648H64.384V289.6h144.352V230.24z m0 168.096H64.384v59.328h144.352v-59.328z m714.656 76.576h-57.76v474.496c0 7.936-4.896 14.848-10.464 14.848H175.936c-5.568 0-10.464-6.912-10.464-14.848v-155.68h43.296v-59.296H64.384v59.296h43.328v155.68c-1.024 39.776 29.472 72.896 68.192 74.144h679.232c38.72-1.184 69.248-34.368 68.256-74.144V474.912z m14.944-290.336l-83.072-85.312a71.264 71.264 0 0 0-52.544-21.728 71.52 71.52 0 0 0-51.616 23.872L386.528 507.264a30.496 30.496 0 0 0-6.176 10.72L308.16 740.512a30.016 30.016 0 0 0 6.976 30.24c7.712 7.968 19.2 10.752 29.568 7.2l216.544-74.112a28.736 28.736 0 0 0 12.128-7.936L940.448 287.456a75.552 75.552 0 0 0-2.112-102.88z m-557.12 518.272l39.104-120.64 78.336 80.416-117.44 40.224z m170.048-70.016l-103.552-106.016 200.16-222.4 103.52 106.304-200.128 222.112zM897.952 247.072l-0.256 0.224-107.136 119.168-103.52-106.528 106.432-118.624a14.144 14.144 0 0 1 10.304-4.736 13.44 13.44 0 0 1 10.464 4.288l83.264 85.696c5.472 5.6 5.664 14.72 0.448 20.512z" p-id="4806"></path></svg>