<?xml version="1.0" standalone="no"?><!DOCTYPE svg PUBLIC "-//W3C//DTD SVG 1.1//EN" "http://www.w3.org/Graphics/SVG/1.1/DTD/svg11.dtd"><svg t="1568899557259" class="icon" viewBox="0 0 1024 1024" version="1.1" xmlns="http://www.w3.org/2000/svg" p-id="535" xmlns:xlink="http://www.w3.org/1999/xlink" width="200" height="200"><defs><style type="text/css"></style></defs><path d="M356.246145 681.56286c-68.156286-41.949414-107.246583-103.84102-107.246583-169.805384 0-65.966411 39.090297-127.860063 107.246583-169.809477 12.046361-7.414877 15.800871-23.190165 8.385994-35.236526-7.413853-12.046361-23.191188-15.801894-35.236526-8.387018-39.640836 24.399713-72.539106 56.044434-95.137801 91.515297-23.86657 37.461193-36.481889 79.620385-36.481889 121.917724 0 42.297338 12.615319 84.454484 36.481889 121.914654 22.598694 35.469839 55.496965 67.11456 95.137801 91.51325 4.185322 2.576685 8.821923 3.804652 13.400195 3.804652 8.598842 0 16.998139-4.329609 21.836331-12.190647C372.047016 704.752002 368.291482 688.976714 356.246145 681.56286zM263.943926 754.580874c-92.603071-61.111846-145.713686-149.623739-145.713686-242.840794 0-93.195565 53.094242-181.682899 145.667637-242.774279 11.805884-7.79043 15.061021-23.677259 7.269567-35.483142-7.79043-11.805884-23.677259-15.062044-35.483142-7.269567C128.487861 296.954249 67.006602 401.024489 67.006602 511.74008c0 110.73708 61.496609 214.830857 168.721703 285.593504 4.343935 2.867304 9.240455 4.238534 14.08274 4.238534 8.317433 0 16.476253-4.046153 21.400403-11.507078C279.003923 778.258133 275.748786 762.372328 263.943926 754.580874zM788.660552 226.213092c-11.80486-7.791453-27.692712-4.536316-35.483142 7.269567-7.79043 11.805884-4.536316 27.692712 7.269567 35.483142 92.575442 61.092403 145.670707 149.579737 145.670707 242.774279 0 93.216032-53.111638 181.727924-145.715733 242.840794-11.805884 7.79043-15.059997 23.678282-7.269567 35.484166 4.925173 7.461949 13.081946 11.507078 21.400403 11.507078 4.841262 0 9.739828-1.37123 14.083763-4.238534 107.22714-70.761624 168.724773-174.857447 168.724773-285.593504C957.341323 401.025513 895.860063 296.955272 788.660552 226.213092zM790.090111 633.67213c23.865547-37.459147 36.480866-79.617315 36.480866-121.914654 0-42.298362-12.615319-84.45653-36.480866-121.917724-22.598694-35.470863-55.496965-67.115584-95.139847-91.515297-12.047384-7.413853-27.821649-3.659343-35.236526 8.387018-7.414877 12.045337-3.659343 27.821649 8.385994 35.236526 68.156286 41.949414 107.247606 103.842043 107.247606 169.809477 0 65.964364-39.090297 127.85597-107.247606 169.804361-12.045337 7.414877-15.800871 23.190165-8.385994 35.237549 4.838192 7.861038 13.236466 12.190647 21.835308 12.190647 4.579295 0 9.215896-1.227967 13.400195-3.804652C734.591099 700.786691 767.490394 669.142993 790.090111 633.67213zM567.129086 518.274914c24.12342-17.150612 39.887452-45.305859 39.887452-77.07133 0-52.128241-42.452881-94.538143-94.634334-94.538143-52.18043 0-94.633311 42.408879-94.633311 94.538143 0 31.695886 15.696494 59.797921 39.730886 76.958766-49.875944 21.128203-84.917018 70.234621-84.917018 127.301338 0 2.366907 0.061398 4.762467 0.182149 7.119141l1.249457 24.296359 276.373515 0 1.238201-24.308639c0.119727-2.358721 0.181125-4.750187 0.181125-7.106862C651.786185 588.497255 616.865861 539.465538 567.129086 518.274914zM512.381182 397.889079c23.937179 0 43.411719 19.430538 43.411719 43.314505 0 23.882943-19.47454 43.313481-43.411719 43.313481-23.936155 0-43.409672-19.430538-43.409672-43.313481C468.971509 417.320641 488.445026 397.889079 512.381182 397.889079zM426.08884 625.656573c9.119705-38.542828 44.254923-67.337641 86.085634-67.337641s76.966952 28.794813 86.085634 67.337641L426.08884 625.656573z" p-id="536"></path></svg>