<?xml version="1.0" standalone="no"?><!DOCTYPE svg PUBLIC "-//W3C//DTD SVG 1.1//EN" "http://www.w3.org/Graphics/SVG/1.1/DTD/svg11.dtd"><svg t="1566035680909" class="icon" viewBox="0 0 1024 1024" version="1.1" xmlns="http://www.w3.org/2000/svg" p-id="3601" xmlns:xlink="http://www.w3.org/1999/xlink" width="200" height="200"><defs><style type="text/css"></style></defs><path d="M1002.0848 744.672l-33.568 10.368c0.96 7.264 2.144 14.304 2.144 21.76 0 7.328-1.184 14.432-2.368 21.568l33.792 10.56c7.936 2.24 14.496 7.616 18.336 14.752 3.84 7.328 4.672 15.808 1.952 23.552-5.376 16-23.168 24.672-39.936 19.68l-34.176-10.624c-7.136 12.8-15.776 24.672-26.208 35.2l20.8 27.488a28.96 28.96 0 0 1 5.824 22.816 29.696 29.696 0 0 1-12.704 19.616 32.544 32.544 0 0 1-44.416-6.752l-20.8-27.552c-13.696 6.56-28.192 11.2-43.008 13.888v33.632c0 16.736-14.112 30.432-31.648 30.432-17.6 0-31.872-13.696-31.872-30.432v-33.632a167.616 167.616 0 0 1-42.88-13.888l-20.928 27.552c-10.72 13.76-30.08 16.64-44.288 6.752a29.632 29.632 0 0 1-12.704-19.616 29.28 29.28 0 0 1 5.696-22.816l20.896-27.808a166.72 166.72 0 0 1-27.008-34.688l-33.376 10.432c-16.8 5.184-34.56-3.552-39.936-19.616a29.824 29.824 0 0 1 20.224-38.24l33.472-10.432c-0.8-7.264-2.016-14.304-2.016-21.824 0-7.36 1.184-14.496 2.304-21.632l-33.792-10.368c-16.672-5.376-25.632-22.496-20.224-38.432 5.376-16 23.136-24.672 39.936-19.68l34.016 10.752c7.328-12.672 15.84-24.8 26.336-35.328l-20.8-27.552a29.44 29.44 0 0 1 6.944-42.432 32.704 32.704 0 0 1 44.384 6.752l20.832 27.616c13.696-6.432 28.224-11.2 43.104-13.952v-33.568c0-16.736 14.048-30.432 31.648-30.432 17.536 0 31.808 13.568 31.808 30.432v33.504c15.072 2.688 29.344 7.808 42.848 14.016l20.992-27.616a32.48 32.48 0 0 1 44.224-6.752 29.568 29.568 0 0 1 7.136 42.432l-21.024 27.808c10.432 10.432 19.872 21.888 27.04 34.752l33.376-10.432c16.768-5.12 34.56 3.68 39.936 19.68 5.536 15.936-3.712 33.056-20.32 38.304z m-206.016-74.432c-61.344 0-111.136 47.808-111.136 106.56 0 58.88 49.792 106.496 111.136 106.496 61.312 0 111.104-47.616 111.104-106.496 0-58.752-49.792-106.56-111.104-106.56z" p-id="3602"></path><path d="M802.7888 57.152h-76.448c0-22.08-21.024-38.24-42.848-38.24H39.3968a39.68 39.68 0 0 0-39.36 40.032v795.616s41.888 120.192 110.752 120.192H673.2848a227.488 227.488 0 0 1-107.04-97.44H117.6368s-40.608-13.696-40.608-41.248l470.304-0.256 1.664 3.36a227.68 227.68 0 0 1-12.64-73.632c0-60.576 24-118.624 66.88-161.44a228.352 228.352 0 0 1 123.552-63.392l-3.2 0.288 2.144-424.672h38.208l0.576 421.024c27.04 0 52.672 4.8 76.64 13.344V101.536c0.032 0-6.304-44.384-38.368-44.384zM149.7648 514.336H72.3888v-77.408H149.7648v77.408z m0-144.32H72.3888v-77.44H149.7648v77.44z m0-137.248H72.3888v-77.44H149.7648v77.44z m501.856 281.568H206.0848v-77.408h445.536v77.408z m0-144.32H206.0848v-77.44h445.536v77.44z m0-137.248H206.0848v-77.44h445.536v77.44z" p-id="3603"></path></svg>