<?xml version="1.0" standalone="no"?><!DOCTYPE svg PUBLIC "-//W3C//DTD SVG 1.1//EN" "http://www.w3.org/Graphics/SVG/1.1/DTD/svg11.dtd"><svg t="1566036191400" class="icon" viewBox="0 0 1024 1024" version="1.1" xmlns="http://www.w3.org/2000/svg" p-id="5472" xmlns:xlink="http://www.w3.org/1999/xlink" width="200" height="200"><defs><style type="text/css"></style></defs><path d="M934.912 1016.832H192c-14.336 0-25.6-11.264-25.6-25.6v-189.44c0-14.336 11.264-25.6 25.6-25.6s25.6 11.264 25.6 25.6v163.84h691.712V64H217.6v148.48c0 14.336-11.264 25.6-25.6 25.6s-25.6-11.264-25.6-25.6v-174.08c0-14.336 11.264-25.6 25.6-25.6h742.912c14.336 0 25.6 11.264 25.6 25.6v952.832c0 14.336-11.264 25.6-25.6 25.6z" p-id="5473"></path><path d="M232.96 371.2h-117.76c-14.336 0-25.6-11.264-25.6-25.6s11.264-25.6 25.6-25.6h117.76c14.336 0 25.6 11.264 25.6 25.6s-11.264 25.6-25.6 25.6zM232.96 540.16h-117.76c-14.336 0-25.6-11.264-25.6-25.6s11.264-25.6 25.6-25.6h117.76c14.336 0 25.6 11.264 25.6 25.6s-11.264 25.6-25.6 25.6zM232.96 698.88h-117.76c-14.336 0-25.6-11.264-25.6-25.6s11.264-25.6 25.6-25.6h117.76c14.336 0 25.6 11.264 25.6 25.6s-11.264 25.6-25.6 25.6zM574.464 762.88c-134.144 0-243.2-109.056-243.2-243.2S440.32 276.48 574.464 276.48s243.2 109.056 243.2 243.2-109.056 243.2-243.2 243.2z m0-435.2c-105.984 0-192 86.016-192 192S468.48 711.68 574.464 711.68s192-86.016 192-192S680.448 327.68 574.464 327.68z" p-id="5474"></path><path d="M663.04 545.28h-87.04c-14.336 0-25.6-11.264-25.6-25.6s11.264-25.6 25.6-25.6h87.04c14.336 0 25.6 11.264 25.6 25.6s-11.264 25.6-25.6 25.6z" p-id="5475"></path><path d="M576 545.28c-14.336 0-25.6-11.264-25.6-25.6v-87.04c0-14.336 11.264-25.6 25.6-25.6s25.6 11.264 25.6 25.6v87.04c0 14.336-11.264 25.6-25.6 25.6z" p-id="5476"></path></svg>