<?xml version="1.0" standalone="no"?><!DOCTYPE svg PUBLIC "-//W3C//DTD SVG 1.1//EN" "http://www.w3.org/Graphics/SVG/1.1/DTD/svg11.dtd"><svg t="1575802855098" class="icon" viewBox="0 0 1024 1024" version="1.1" xmlns="http://www.w3.org/2000/svg" p-id="2984" xmlns:xlink="http://www.w3.org/1999/xlink" width="200" height="200"><defs><style type="text/css"></style></defs><path d="M896 160H128c-35.2 0-64 28.8-64 64v576c0 35.2 28.8 64 64 64h768c35.2 0 64-28.8 64-64V224c0-35.2-28.8-64-64-64z m0 608c0 16-12.8 32-32 32H160c-19.2 0-32-12.8-32-32V256c0-16 12.8-32 32-32h704c19.2 0 32 12.8 32 32v512z" p-id="2985"></path><path d="M224 288c-19.2 0-32 12.8-32 32v256c0 16 12.8 32 32 32s32-12.8 32-32V320c0-16-12.8-32-32-32z m608 480c19.2 0 32-12.8 32-32V608L704 768h128z" p-id="2986"></path></svg>