<?xml version="1.0" standalone="no"?><!DOCTYPE svg PUBLIC "-//W3C//DTD SVG 1.1//EN" "http://www.w3.org/Graphics/SVG/1.1/DTD/svg11.dtd"><svg t="1579774825624" class="icon" viewBox="0 0 1024 1024" version="1.1" xmlns="http://www.w3.org/2000/svg" p-id="1248" xmlns:xlink="http://www.w3.org/1999/xlink" width="200" height="200"><defs><style type="text/css"></style></defs><path d="M498.595712 482.290351 345.420077 482.290351l0 57.307194 210.477712 0L555.897789 274.196942l-57.301054 0L498.596735 482.290351zM498.595712 482.290351" p-id="1249"></path><path d="M577.685002 644.98478l379.879913 0 0 57.302077L577.685002 702.286858 577.685002 644.98478 577.685002 644.98478zM577.685002 644.98478" p-id="1250"></path><path d="M577.685002 773.764795l379.879913 0 0 57.307194L577.685002 831.071989 577.685002 773.764795 577.685002 773.764795zM577.685002 773.764795" p-id="1251"></path><path d="M577.685002 902.549927l379.879913 0 0 57.307194L577.685002 959.857121 577.685002 902.549927 577.685002 902.549927zM577.685002 902.549927" p-id="1252"></path><path d="M102.523001 382.290823c4.450359 2.615571 9.470699 3.954055 14.530948 3.954055 2.969635 0 5.952572-0.461511 8.836249-1.394766l190.809767-61.886489c15.052834-4.882194 23.297612-21.040199 18.415418-36.08894-4.882194-15.052834-21.040199-23.297612-36.093033-18.415418L175.676092 308.458257c15.994276-26.115797 35.170011-50.537 57.370639-72.743768 73.767074-73.767074 171.845857-114.388237 276.16783-114.388237 104.32095 0 202.39564 40.622186 276.16169 114.388237s114.393353 171.845857 114.393353 276.16783c0 26.427906-2.615571 52.449559-7.709589 77.780481l58.302871 0c4.464685-25.499767 6.708795-51.470255 6.708795-77.780481 0-60.449767-11.845793-119.102608-35.204803-174.336584-22.559808-53.334719-54.850236-101.226472-95.968725-142.349055-41.122583-41.122583-89.017406-73.408917-142.348032-95.968725C628.317169 75.866898 569.659211 64.021106 509.215584 64.021106c-60.448744 0-119.106702 11.845793-174.336584 35.207873-53.334719 22.559808-101.230566 54.846142-142.349055 95.968725-23.980157 23.980157-44.934398 50.278103-62.727647 78.601172l-20.738323-105.655342c-3.043313-15.527648-18.105357-25.642007-33.631982-22.599717-15.527648 3.048429-25.64303 18.105357-22.599717 33.637098l36.102243 183.932126C90.51348 371.153158 95.460142 378.13313 102.523001 382.290823L102.523001 382.290823zM102.523001 382.290823" p-id="1253"></path><path d="M126.020158 587.9416 67.768453 587.9416c5.759167 33.679054 15.368012 66.544579 28.789697 98.278327 22.559808 53.333696 54.850236 101.225449 95.971795 142.348032 41.122583 41.122583 89.014336 73.408917 142.349055 95.968725 54.112432 22.88829 111.517863 34.71157 170.668031 35.18229L505.547031 902.395408c-102.94972-0.941442-199.594851-41.445948-272.499277-114.349351C177.545672 732.543975 140.810003 663.275355 126.020158 587.9416L126.020158 587.9416zM126.020158 587.9416" p-id="1254"></path></svg>