<?xml version="1.0" standalone="no"?><!DOCTYPE svg PUBLIC "-//W3C//DTD SVG 1.1//EN"
        "http://www.w3.org/Graphics/SVG/1.1/DTD/svg11.dtd">
<svg t="1720063872285" class="icon" viewBox="0 0 1024 1024" version="1.1" xmlns="http://www.w3.org/2000/svg" p-id="6895"
     width="200" height="200">
    <path d="M782.16 880.98c-179.31 23.91-361 23.91-540.32 0C138.89 867.25 62 779.43 62 675.57V348.43c0-103.86 76.89-191.69 179.84-205.41 179.31-23.91 361-23.91 540.31 0C885.11 156.75 962 244.57 962 348.43v327.13c0 103.87-76.89 191.69-179.84 205.42z"
          fill="#FF554D" p-id="6896"></path>
    <path d="M226.11 596.86c-9.74 47.83 17.26 95.6 63.48 111.3C333.49 723.08 394.55 737 469.53 737c59.25 0 105.46-8.69 140.23-19.7 51.59-16.34 79.94-71.16 63.37-122.68-24.47-76.11-65.57-180.7-106.68-180.7-64.62 0-64.62 96.92-64.62 96.92S437.22 317 372.61 317c-82.11 0-117.85 139.12-146.5 279.86z"
          fill="#FFFFFF" p-id="6897"></path>
    <path d="M782 347m-60 0a60 60 0 1 0 120 0 60 60 0 1 0-120 0Z" fill="#FFBC55" p-id="6898"></path>
</svg>
