<?xml version="1.0" standalone="no"?><!DOCTYPE svg PUBLIC "-//W3C//DTD SVG 1.1//EN" "http://www.w3.org/Graphics/SVG/1.1/DTD/svg11.dtd"><svg t="1645964864184" class="icon" viewBox="0 0 1024 1024" version="1.1" xmlns="http://www.w3.org/2000/svg" p-id="8460" xmlns:xlink="http://www.w3.org/1999/xlink" width="40" height="40"><defs><style type="text/css"></style></defs><path d="M768.3 0 255.7 0c-70.8 0-128.1 57.4-128.1 128.1l0 767.8c0 70.8 57.4 128.1 128.1 128.1L512 1024l256.3 0c70.8 0 128.1-57.4 128.1-128.1L896.4 128.1C896.4 57.3 839 0 768.3 0zM383.9 96.1c0-17.7 14.3-32 32-32l192.2 0c17.7 0 32 14.3 32 32l0 0c0 17.7-14.3 32-32 32L415.9 128.1C398.2 128.1 383.9 113.8 383.9 96.1L383.9 96.1zM512 959.9 512 959.9 512 959.9c-35.4 0-64.1-28.8-64.1-64.1 0-35.4 28.7-64.1 64.1-64.1l0 0 0 0c35.4 0 64.1 28.7 64.1 64.1C576.1 931.1 547.4 959.9 512 959.9zM832.3 755.6c0 6.7-5.4 12.2-12.2 12.2L203.9 767.8c-6.7 0-12.2-5.4-12.2-12.2L191.7 204.3c0-6.7 5.4-12.2 12.2-12.2l616.3 0c6.7 0 12.2 5.4 12.2 12.2L832.4 755.6z" p-id="8461" fill="#1977FD"></path></svg>