<?xml version="1.0" standalone="no"?><!DOCTYPE svg PUBLIC "-//W3C//DTD SVG 1.1//EN" "http://www.w3.org/Graphics/SVG/1.1/DTD/svg11.dtd"><svg t="1676209433089" class="icon" viewBox="0 0 1024 1024" version="1.1" xmlns="http://www.w3.org/2000/svg" p-id="2990" xmlns:xlink="http://www.w3.org/1999/xlink" width="128" height="128"><path d="M608.6 290.3c67.1 0 121.7 50.5 121.7 112.9 0 19.4-5.6 38.4-15.7 55.5-15.3 25-39.8 43.5-69.4 52.3-7.9 2.3-13.9 3.2-19.4 3.2-13 0-23.1-10.2-23.1-23.1 0-13 10.2-23.1 23.1-23.1 0.9 0 2.8 0 5.1-0.9 19.9-5.6 35.6-17.1 44.4-32.4 6-9.7 8.8-20.4 8.8-31.5 0-36.6-33.8-66.6-75-66.6-14.4 0-28.2 3.7-40.7 10.6-21.8 12.5-34.7 33.3-34.7 56v193.9c0 39.3-21.8 75.4-57.9 95.8-19.4 11.1-41.2 16.7-63.4 16.7-67.1 0-121.7-50.5-121.7-112.9 0-19.4 5.6-38.4 15.7-55.5 15.3-25 39.8-43.5 69.4-52.3 8.3-2.3 13.9-3.2 19.4-3.2 13 0 23.1 10.2 23.1 23.1 0 13-10.2 23.1-23.1 23.1-0.9 0-2.8 0-5.1 0.9-19.9 6-35.6 17.6-44.4 32.4-6 9.7-8.8 20.4-8.8 31.5 0 36.6 33.8 66.6 75.4 66.6 14.4 0 28.2-3.7 40.7-10.6 21.8-12.5 34.7-33.3 34.7-56V403.3c0-39.3 21.8-75.4 57.9-95.8 19-11.6 40.7-17.2 63-17.2zM510.8 929c231.1 0 418.4-187.3 418.4-418.4S741.9 92.1 510.8 92.1 92.4 279.5 92.4 510.6 279.7 929 510.8 929z m0 22C267.5 951 70.3 753.8 70.3 510.6S267.5 70.1 510.8 70.1s440.5 197.2 440.5 440.5S754.1 951 510.8 951z" p-id="2991" fill="#58bf6b"></path></svg>