<?xml version="1.0" standalone="no"?><!DOCTYPE svg PUBLIC "-//W3C//DTD SVG 1.1//EN" "http://www.w3.org/Graphics/SVG/1.1/DTD/svg11.dtd"><svg t="1575803481213" class="icon" viewBox="0 0 1024 1024" version="1.1" xmlns="http://www.w3.org/2000/svg" p-id="804" xmlns:xlink="http://www.w3.org/1999/xlink" width="200" height="200"><defs><style type="text/css"></style></defs><path d="M62 511.97954521C62 263.86590869 263.90681826 62 511.97954521 62s449.97954521 201.825 449.97954521 449.97954521c0 248.19545479-201.90681826 449.97954521-449.97954521 449.97954521C263.90681826 962 62 760.175 62 511.97954521M901.98636348 511.97954521c0-215.24318174-175.00909131-390.41590869-390.00681827-390.41590869-215.03863652 0-389.96590869 175.17272695-389.96590868 390.41590869 0 215.28409131 175.00909131 390.45681826 389.96590868 390.45681826C727.01818174 902.47727305 901.98636348 727.30454521 901.98636348 511.97954521M264.17272695 430.28409131c0-5.76818174 2.12727305-11.51590869 6.64772696-15.87272696 8.71363652-8.75454521 22.88863652-8.75454521 31.725 0l209.4340913 208.22727305L721.45454521 414.53409131c8.75454521-8.71363652 22.97045479-8.71363652 31.90909132 0 8.71363652 8.75454521 8.71363652 22.88863652 0 31.60227304L511.97954521 685.74090869 270.71818174 446.01363653C266.27954521 441.77954521 264.17272695 436.05227305 264.17272695 430.28409131" p-id="805"></path></svg>